<svg id="svg" version="1.1" xmlns="http://www.w3.org/2000/svg" xmlns:xlink="http://www.w3.org/1999/xlink" width="400" height="225" viewBox="0, 0, 400,225"><g id="svgg"><path id="path0" d="M177.684 94.377 C 177.464 94.491,177.071 94.996,176.811 95.500 C 173.425 102.056,175.379 106.431,182.203 107.576 L 182.822 107.680 182.869 114.131 C 182.913 120.041,182.893 120.604,182.632 120.833 C 182.476 120.971,181.625 122.133,180.742 123.417 C 179.629 125.035,179.052 125.735,178.860 125.701 C 178.652 125.665,178.637 125.689,178.801 125.800 C 178.973 125.917,178.926 126.120,178.579 126.766 C 178.226 127.424,178.162 127.713,178.250 128.250 C 178.310 128.617,178.369 129.044,178.382 129.200 C 178.395 129.356,178.431 129.458,178.464 129.425 C 178.496 129.392,178.827 129.696,179.199 130.100 L 179.876 130.833 199.719 130.833 L 219.563 130.833 220.106 130.461 C 220.404 130.257,220.821 129.814,221.033 129.478 C 221.244 129.142,221.456 128.892,221.505 128.921 C 221.553 128.950,221.550 128.549,221.497 128.029 C 221.403 127.109,218.492 122.387,217.051 120.818 C 216.715 120.451,216.681 120.318,216.827 119.932 C 216.935 119.650,217.000 117.242,217.000 113.576 L 217.000 107.673 217.458 107.586 C 224.090 106.328,226.095 102.390,223.248 96.214 C 221.931 93.357,220.586 93.409,220.317 96.326 C 220.093 98.750,219.263 99.811,217.597 99.802 C 216.965 99.798,216.893 99.748,216.583 99.107 C 215.977 97.851,215.338 97.667,211.585 97.667 L 208.408 97.667 207.474 96.770 C 204.394 93.810,195.420 93.890,192.196 96.905 L 191.382 97.667 188.160 97.667 C 184.337 97.667,183.823 97.812,183.146 99.088 C 182.031 101.190,179.625 99.354,179.336 96.181 C 179.171 94.368,178.700 93.854,177.684 94.377 M198.460 94.285 C 198.668 94.324,198.968 94.323,199.127 94.281 C 199.286 94.239,199.117 94.207,198.750 94.209 C 198.383 94.211,198.253 94.245,198.460 94.285 M200.625 94.284 C 200.831 94.324,201.169 94.324,201.375 94.284 C 201.581 94.245,201.412 94.212,201.000 94.212 C 200.588 94.212,200.419 94.245,200.625 94.284 M179.542 95.583 C 179.544 95.950,179.578 96.080,179.618 95.873 C 179.658 95.666,179.656 95.366,179.615 95.206 C 179.573 95.047,179.540 95.217,179.542 95.583 M178.333 95.965 C 178.333 98.863,179.653 100.519,182.187 100.800 L 183.233 100.917 183.234 102.000 C 183.234 102.596,183.219 103.890,183.201 104.875 L 183.167 106.667 182.693 106.667 C 177.172 106.667,174.712 101.991,177.365 96.542 C 178.134 94.963,178.333 94.844,178.333 95.965 M193.477 95.510 L 193.083 95.853 193.583 95.560 C 194.241 95.175,194.251 95.167,194.046 95.167 C 193.949 95.167,193.693 95.321,193.477 95.510 M222.336 96.529 C 224.966 101.614,223.160 105.621,217.824 106.536 C 216.392 106.782,216.527 107.063,216.487 103.747 L 216.453 100.917 217.450 100.819 C 219.864 100.584,220.980 99.355,221.254 96.629 C 221.439 94.793,221.438 94.793,222.336 96.529 M201.450 95.668 C 203.457 95.846,205.633 96.440,206.333 97.002 C 206.691 97.289,206.619 97.278,205.832 96.924 C 202.708 95.523,196.755 95.567,194.000 97.013 C 193.123 97.473,193.105 97.475,193.583 97.076 C 194.238 96.530,196.409 95.858,198.083 95.683 C 198.817 95.607,199.454 95.535,199.500 95.524 C 199.546 95.512,200.423 95.577,201.450 95.668 M192.000 96.500 C 191.789 96.683,191.691 96.833,191.782 96.833 C 191.873 96.833,192.084 96.683,192.250 96.500 C 192.416 96.317,192.514 96.167,192.468 96.167 C 192.422 96.167,192.211 96.317,192.000 96.500 M202.383 96.936 C 203.758 97.632,204.490 98.469,203.375 98.071 C 202.183 97.646,201.766 97.887,202.583 98.530 C 203.312 99.103,203.032 99.173,202.165 98.634 C 201.271 98.078,201.023 98.087,201.332 98.665 C 201.509 98.995,201.497 99.010,201.190 98.846 C 200.686 98.576,200.636 98.623,200.892 99.125 C 201.021 99.377,201.183 99.845,201.252 100.164 L 201.377 100.745 200.730 100.161 C 199.280 98.853,198.485 98.573,198.802 99.482 C 199.060 100.221,198.620 99.984,197.964 99.030 C 197.675 98.611,197.409 98.357,197.372 98.467 C 197.277 98.752,197.000 98.714,197.000 98.417 C 197.000 97.956,196.716 98.160,196.321 98.905 C 195.850 99.793,195.598 99.721,195.710 98.728 C 195.795 97.979,195.611 97.789,195.200 98.200 C 194.939 98.461,194.950 98.158,195.214 97.833 C 195.622 97.330,196.021 97.084,195.895 97.412 C 195.797 97.667,195.829 97.681,196.139 97.515 C 196.473 97.336,196.485 97.351,196.335 97.745 C 196.122 98.306,196.288 98.276,196.950 97.634 L 197.500 97.101 197.500 97.530 C 197.500 97.876,197.580 97.958,197.917 97.958 C 198.260 97.958,198.333 97.878,198.333 97.501 L 198.333 97.044 198.930 97.607 C 199.603 98.241,199.828 98.223,199.704 97.546 L 199.619 97.083 199.970 97.500 C 200.265 97.849,200.323 97.869,200.328 97.619 C 200.332 97.374,200.392 97.353,200.667 97.500 C 201.006 97.682,201.159 97.452,200.833 97.250 C 200.481 97.032,200.679 96.846,201.094 97.004 C 201.765 97.259,202.086 97.221,201.833 96.917 C 201.566 96.595,201.719 96.601,202.383 96.936 M187.033 97.291 C 187.831 97.321,189.181 97.321,190.033 97.291 C 190.886 97.261,190.233 97.236,188.583 97.236 C 186.933 97.235,186.236 97.260,187.033 97.291 M208.442 97.292 C 208.399 97.360,209.239 97.397,210.307 97.373 C 213.892 97.293,214.272 97.231,211.385 97.199 C 209.809 97.181,208.485 97.223,208.442 97.292 M192.500 98.825 C 192.500 98.918,190.929 99.003,188.652 99.033 L 184.804 99.083 184.402 99.551 C 184.010 100.006,183.999 100.100,183.974 103.134 L 183.948 106.250 183.819 103.250 C 183.676 99.937,183.798 99.311,184.667 98.879 C 185.177 98.625,192.500 98.575,192.500 98.825 M215.370 99.151 C 215.981 99.697,215.979 99.674,215.841 103.667 L 215.768 105.750 215.676 102.796 C 215.550 98.783,215.935 99.098,211.079 99.033 C 208.869 99.003,207.333 98.918,207.333 98.824 C 207.333 98.730,208.834 98.667,211.081 98.667 L 214.828 98.667 215.370 99.151 M174.667 101.000 C 174.667 101.367,174.742 101.667,174.833 101.667 C 174.925 101.667,175.000 101.367,175.000 101.000 C 175.000 100.633,174.925 100.333,174.833 100.333 C 174.742 100.333,174.667 100.633,174.667 101.000 M213.947 100.708 C 214.087 100.928,214.037 118.638,213.896 118.867 C 213.851 118.940,207.486 119.000,199.751 119.000 L 185.689 119.000 185.573 118.635 C 185.447 118.237,185.636 101.434,185.772 100.958 C 185.848 100.695,186.141 100.667,188.838 100.667 L 191.820 100.667 192.070 101.506 C 192.540 103.089,193.227 103.696,193.732 102.975 L 193.983 102.617 194.608 103.166 C 195.629 104.063,197.796 104.797,198.078 104.342 C 198.139 104.243,198.260 104.204,198.345 104.257 C 198.562 104.391,198.539 105.394,198.315 105.619 C 197.401 106.532,201.533 106.132,202.552 105.208 C 202.752 105.026,203.201 104.834,203.548 104.781 C 204.278 104.671,205.661 103.717,205.993 103.096 C 206.177 102.753,206.267 102.709,206.459 102.869 C 206.749 103.109,207.324 102.468,207.330 101.897 C 207.339 101.003,207.897 100.683,209.549 100.624 C 213.306 100.490,213.813 100.499,213.947 100.708 M191.053 105.208 C 190.638 105.668,190.073 106.636,190.175 106.712 C 190.216 106.743,190.775 106.916,191.417 107.098 C 192.406 107.377,192.574 107.477,192.521 107.755 C 191.986 110.549,192.702 112.167,194.471 112.166 C 195.809 112.165,196.552 111.528,196.764 110.199 C 196.866 109.564,196.897 109.532,197.280 109.678 C 198.017 109.958,198.833 109.076,198.833 108.001 C 198.833 107.673,198.811 107.669,198.329 107.919 C 197.828 108.178,197.817 108.174,196.194 107.093 C 193.228 105.119,191.654 104.542,191.053 105.208 M205.965 105.562 C 205.167 105.970,203.942 106.699,203.242 107.183 C 202.045 108.011,201.940 108.051,201.455 107.867 C 200.812 107.625,200.766 107.672,200.908 108.428 C 201.072 109.304,201.704 109.888,202.338 109.749 C 202.765 109.655,202.833 109.689,202.833 109.992 C 202.833 111.875,205.219 112.887,206.623 111.600 C 207.373 110.913,207.620 109.038,207.095 108.022 C 206.784 107.422,206.895 107.340,208.542 106.959 C 209.480 106.742,209.508 106.589,208.785 105.638 C 208.053 104.676,207.717 104.667,205.965 105.562 M193.566 105.913 C 194.370 106.323,195.625 107.077,196.355 107.588 C 197.294 108.246,197.777 108.488,198.007 108.414 C 198.449 108.274,198.441 108.726,197.994 109.173 L 197.655 109.512 196.952 109.075 C 195.700 108.297,193.615 107.370,192.250 106.987 C 190.575 106.516,190.587 106.528,191.092 105.786 C 191.626 105.000,191.794 105.008,193.566 105.913 M208.575 105.688 C 209.190 106.418,209.131 106.472,206.992 107.160 C 205.028 107.793,204.232 108.149,202.904 108.991 C 202.053 109.530,201.802 109.514,201.523 108.900 C 201.268 108.340,201.281 108.294,201.659 108.414 C 201.890 108.487,202.369 108.249,203.295 107.600 C 204.695 106.619,207.403 105.178,207.860 105.171 C 208.012 105.169,208.334 105.401,208.575 105.688 M220.500 107.083 C 220.271 107.214,220.158 107.322,220.250 107.322 C 220.342 107.322,220.604 107.214,220.833 107.083 C 221.063 106.952,221.175 106.845,221.083 106.845 C 220.992 106.845,220.729 106.952,220.500 107.083 M195.562 108.532 L 196.540 109.025 196.460 109.858 C 196.159 112.986,192.667 112.539,192.667 109.373 C 192.667 107.325,192.985 107.232,195.562 108.532 M206.741 107.870 C 207.133 108.431,207.092 110.430,206.674 111.116 C 205.715 112.688,203.416 111.915,203.222 109.956 C 203.130 109.025,203.194 108.955,204.840 108.181 C 206.521 107.392,206.417 107.409,206.741 107.870 M182.409 113.750 C 182.409 117.050,182.431 118.424,182.458 116.802 C 182.485 115.181,182.485 112.481,182.458 110.802 C 182.431 109.124,182.409 110.450,182.409 113.750 M195.708 112.777 C 195.341 112.925,195.481 113.904,195.982 114.696 C 198.095 118.026,203.066 117.341,204.234 113.559 C 204.341 113.213,203.995 112.667,203.668 112.667 C 203.591 112.667,203.212 112.969,202.827 113.339 C 201.014 115.082,198.730 115.111,196.961 113.416 C 196.176 112.664,196.093 112.622,195.708 112.777 M196.869 113.751 C 198.722 115.416,201.331 115.342,203.040 113.574 C 203.940 112.644,204.214 112.976,203.594 114.244 C 202.152 117.189,198.151 117.441,196.335 114.700 C 195.895 114.036,195.650 113.000,195.934 113.000 C 195.989 113.000,196.410 113.338,196.869 113.751 M215.000 116.508 C 215.000 118.948,214.989 119.026,214.591 119.424 L 214.182 119.833 199.859 119.833 C 182.799 119.833,184.775 120.203,184.695 116.995 C 184.659 115.567,184.703 114.731,184.820 114.614 C 184.949 114.484,185.000 115.072,185.000 116.691 C 185.000 119.967,183.032 119.583,199.833 119.583 C 216.523 119.583,214.666 119.894,214.669 117.099 C 214.670 115.389,214.791 114.000,214.938 114.000 C 214.972 114.000,215.000 115.128,215.000 116.508 M216.398 121.708 C 216.985 122.237,220.366 127.317,220.289 127.554 C 220.102 128.126,219.355 128.148,200.083 128.153 C 181.559 128.159,180.049 128.120,179.558 127.629 C 179.315 127.387,182.349 122.554,183.275 121.708 L 183.685 121.333 199.833 121.333 L 215.981 121.333 216.398 121.708 M185.167 122.333 C 185.167 122.425,185.542 122.500,186.000 122.500 C 186.458 122.500,186.833 122.425,186.833 122.333 C 186.833 122.242,186.458 122.167,186.000 122.167 C 185.542 122.167,185.167 122.242,185.167 122.333 M187.500 122.333 C 187.500 122.425,187.838 122.500,188.250 122.500 C 188.662 122.500,189.000 122.425,189.000 122.333 C 189.000 122.242,188.662 122.167,188.250 122.167 C 187.838 122.167,187.500 122.242,187.500 122.333 M189.583 122.333 C 189.520 122.435,189.776 122.500,190.240 122.500 C 190.658 122.500,191.000 122.425,191.000 122.333 C 191.000 122.242,190.704 122.167,190.343 122.167 C 189.982 122.167,189.640 122.242,189.583 122.333 M191.750 122.333 C 191.687 122.435,191.943 122.500,192.407 122.500 C 192.825 122.500,193.167 122.425,193.167 122.333 C 193.167 122.242,192.871 122.167,192.510 122.167 C 192.149 122.167,191.807 122.242,191.750 122.333 M193.833 122.333 C 193.833 122.425,194.171 122.500,194.583 122.500 C 194.996 122.500,195.333 122.425,195.333 122.333 C 195.333 122.242,194.996 122.167,194.583 122.167 C 194.171 122.167,193.833 122.242,193.833 122.333 M196.000 122.333 C 196.000 122.425,196.338 122.500,196.750 122.500 C 197.162 122.500,197.500 122.425,197.500 122.333 C 197.500 122.242,197.162 122.167,196.750 122.167 C 196.338 122.167,196.000 122.242,196.000 122.333 M198.083 122.333 C 198.020 122.435,198.276 122.500,198.740 122.500 C 199.158 122.500,199.500 122.425,199.500 122.333 C 199.500 122.242,199.204 122.167,198.843 122.167 C 198.482 122.167,198.140 122.242,198.083 122.333 M200.083 122.333 C 200.020 122.435,200.276 122.500,200.740 122.500 C 201.158 122.500,201.500 122.425,201.500 122.333 C 201.500 122.242,201.204 122.167,200.843 122.167 C 200.482 122.167,200.140 122.242,200.083 122.333 M202.167 122.333 C 202.167 122.425,202.504 122.500,202.917 122.500 C 203.329 122.500,203.667 122.425,203.667 122.333 C 203.667 122.242,203.329 122.167,202.917 122.167 C 202.504 122.167,202.167 122.242,202.167 122.333 M204.333 122.333 C 204.333 122.425,204.671 122.500,205.083 122.500 C 205.496 122.500,205.833 122.425,205.833 122.333 C 205.833 122.242,205.496 122.167,205.083 122.167 C 204.671 122.167,204.333 122.242,204.333 122.333 M206.500 122.333 C 206.500 122.425,206.842 122.500,207.260 122.500 C 207.724 122.500,207.980 122.435,207.917 122.333 C 207.860 122.242,207.518 122.167,207.157 122.167 C 206.796 122.167,206.500 122.242,206.500 122.333 M208.500 122.333 C 208.500 122.425,208.838 122.500,209.250 122.500 C 209.662 122.500,210.000 122.425,210.000 122.333 C 210.000 122.242,209.662 122.167,209.250 122.167 C 208.838 122.167,208.500 122.242,208.500 122.333 M210.667 122.333 C 210.667 122.425,211.004 122.500,211.417 122.500 C 211.829 122.500,212.167 122.425,212.167 122.333 C 212.167 122.242,211.829 122.167,211.417 122.167 C 211.004 122.167,210.667 122.242,210.667 122.333 M212.833 122.333 C 212.833 122.425,213.208 122.500,213.667 122.500 C 214.125 122.500,214.500 122.425,214.500 122.333 C 214.500 122.242,214.125 122.167,213.667 122.167 C 213.208 122.167,212.833 122.242,212.833 122.333 M184.667 123.000 C 184.667 123.102,185.441 123.167,186.657 123.167 C 187.804 123.167,188.691 123.096,188.750 123.000 C 188.817 122.892,188.113 122.833,186.760 122.833 C 185.476 122.833,184.667 122.898,184.667 123.000 M189.333 123.000 C 189.333 123.094,189.806 123.167,190.417 123.167 C 191.028 123.167,191.500 123.094,191.500 123.000 C 191.500 122.906,191.028 122.833,190.417 122.833 C 189.806 122.833,189.333 122.906,189.333 123.000 M192.083 123.000 C 192.019 123.105,192.387 123.167,193.073 123.167 C 193.691 123.167,194.167 123.094,194.167 123.000 C 194.167 122.908,193.726 122.833,193.177 122.833 C 192.632 122.833,192.140 122.908,192.083 123.000 M194.750 123.000 C 194.685 123.105,195.054 123.167,195.740 123.167 C 196.358 123.167,196.833 123.094,196.833 123.000 C 196.833 122.908,196.392 122.833,195.843 122.833 C 195.299 122.833,194.807 122.908,194.750 123.000 M197.500 123.000 C 197.500 123.093,197.944 123.167,198.500 123.167 C 199.056 123.167,199.500 123.093,199.500 123.000 C 199.500 122.907,199.056 122.833,198.500 122.833 C 197.944 122.833,197.500 122.907,197.500 123.000 M200.167 123.000 C 200.167 123.093,200.611 123.167,201.167 123.167 C 201.722 123.167,202.167 123.093,202.167 123.000 C 202.167 122.907,201.722 122.833,201.167 122.833 C 200.611 122.833,200.167 122.907,200.167 123.000 M202.750 123.000 C 202.807 123.092,203.299 123.167,203.843 123.167 C 204.392 123.167,204.833 123.092,204.833 123.000 C 204.833 122.906,204.358 122.833,203.740 122.833 C 203.054 122.833,202.685 122.895,202.750 123.000 M205.500 123.000 C 205.500 123.094,205.976 123.167,206.593 123.167 C 207.280 123.167,207.648 123.105,207.583 123.000 C 207.527 122.908,207.035 122.833,206.490 122.833 C 205.941 122.833,205.500 122.908,205.500 123.000 M208.167 123.000 C 208.167 123.094,208.642 123.167,209.260 123.167 C 209.946 123.167,210.315 123.105,210.250 123.000 C 210.193 122.908,209.701 122.833,209.157 122.833 C 208.608 122.833,208.167 122.908,208.167 123.000 M210.833 123.000 C 210.833 123.102,211.639 123.167,212.917 123.167 C 214.194 123.167,215.000 123.102,215.000 123.000 C 215.000 122.898,214.194 122.833,212.917 122.833 C 211.639 122.833,210.833 122.898,210.833 123.000 M196.042 123.634 C 195.560 123.661,195.167 123.755,195.167 123.842 C 195.167 124.046,196.950 124.049,197.076 123.845 C 197.216 123.618,197.018 123.577,196.042 123.634 M200.875 123.623 C 199.716 123.704,199.749 124.000,200.917 124.000 C 201.620 124.000,201.833 123.942,201.833 123.750 C 201.833 123.612,201.815 123.514,201.792 123.531 C 201.769 123.548,201.356 123.589,200.875 123.623 M184.083 123.833 C 184.016 123.942,184.939 124.000,186.730 124.000 C 188.384 124.000,189.521 123.934,189.583 123.833 C 189.650 123.725,188.727 123.667,186.936 123.667 C 185.283 123.667,184.145 123.733,184.083 123.833 M190.250 123.833 C 190.186 123.937,190.495 124.000,191.064 124.000 C 191.568 124.000,192.027 123.925,192.083 123.833 C 192.147 123.730,191.838 123.667,191.270 123.667 C 190.766 123.667,190.307 123.742,190.250 123.833 M192.750 123.833 C 192.686 123.937,193.026 124.000,193.657 124.000 C 194.219 124.000,194.667 123.926,194.667 123.833 C 194.667 123.742,194.259 123.667,193.760 123.667 C 193.261 123.667,192.807 123.742,192.750 123.833 M197.667 123.833 C 197.667 123.925,198.079 124.000,198.583 124.000 C 199.088 124.000,199.500 123.925,199.500 123.833 C 199.500 123.742,199.088 123.667,198.583 123.667 C 198.079 123.667,197.667 123.742,197.667 123.833 M202.500 123.833 C 202.500 123.925,202.912 124.000,203.417 124.000 C 203.921 124.000,204.333 123.925,204.333 123.833 C 204.333 123.742,203.921 123.667,203.417 123.667 C 202.912 123.667,202.500 123.742,202.500 123.833 M205.000 123.833 C 205.000 123.925,205.412 124.000,205.917 124.000 C 206.421 124.000,206.833 123.925,206.833 123.833 C 206.833 123.742,206.421 123.667,205.917 123.667 C 205.412 123.667,205.000 123.742,205.000 123.833 M207.500 123.833 C 207.500 123.925,207.912 124.000,208.417 124.000 C 208.921 124.000,209.333 123.925,209.333 123.833 C 209.333 123.742,208.921 123.667,208.417 123.667 C 207.912 123.667,207.500 123.742,207.500 123.833 M210.000 123.833 C 210.000 123.938,211.028 124.000,212.750 124.000 C 214.472 124.000,215.500 123.938,215.500 123.833 C 215.500 123.729,214.472 123.667,212.750 123.667 C 211.028 123.667,210.000 123.729,210.000 123.833 M212.167 124.500 C 212.167 124.592,212.504 124.667,212.917 124.667 C 213.329 124.667,213.667 124.592,213.667 124.500 C 213.667 124.408,213.329 124.333,212.917 124.333 C 212.504 124.333,212.167 124.408,212.167 124.500 M183.500 124.833 C 183.327 125.156,183.373 125.167,184.893 125.167 C 186.417 125.167,186.667 125.083,186.667 124.570 C 186.667 124.280,183.662 124.530,183.500 124.833 M187.333 124.653 C 187.333 124.737,187.288 124.925,187.232 125.070 C 187.144 125.299,187.341 125.333,188.732 125.333 C 189.613 125.333,190.333 125.264,190.333 125.180 C 190.333 125.096,190.379 124.909,190.434 124.764 C 190.522 124.535,190.326 124.500,188.934 124.500 C 188.054 124.500,187.333 124.569,187.333 124.653 M191.167 124.653 C 191.167 124.737,191.121 124.925,191.066 125.070 C 190.964 125.333,205.609 125.502,205.871 125.240 C 205.922 125.189,205.926 125.002,205.879 124.824 C 205.786 124.467,191.167 124.298,191.167 124.653 M206.500 124.653 C 206.500 125.223,206.719 125.333,207.851 125.333 C 208.965 125.333,209.000 125.321,209.000 124.917 C 209.000 124.509,208.972 124.500,207.750 124.500 C 207.063 124.500,206.500 124.569,206.500 124.653 M210.250 125.167 C 210.307 125.258,210.686 125.333,211.093 125.333 C 211.500 125.333,211.833 125.258,211.833 125.167 C 211.833 125.075,211.454 125.000,210.990 125.000 C 210.470 125.000,210.187 125.064,210.250 125.167 M212.417 125.167 C 212.473 125.258,212.853 125.333,213.260 125.333 C 213.667 125.333,214.000 125.258,214.000 125.167 C 214.000 125.075,213.621 125.000,213.157 125.000 C 212.637 125.000,212.353 125.064,212.417 125.167 M214.500 125.167 C 214.500 125.258,214.875 125.333,215.333 125.333 C 215.792 125.333,216.167 125.258,216.167 125.167 C 216.167 125.075,215.792 125.000,215.333 125.000 C 214.875 125.000,214.500 125.075,214.500 125.167 M179.891 131.206 C 179.997 131.273,188.971 131.312,199.833 131.291 C 210.696 131.271,217.071 131.235,214.000 131.211 C 199.646 131.099,179.718 131.096,179.891 131.206 " stroke="none" fill="#1a242c" fill-rule="evenodd"></path><path id="path1" d="M222.000 94.216 C 222.137 94.335,222.353 94.541,222.479 94.674 C 222.674 94.882,222.681 94.865,222.525 94.561 C 222.425 94.366,222.209 94.159,222.046 94.103 C 221.788 94.013,221.782 94.027,222.000 94.216 M177.333 94.315 C 177.333 94.428,177.264 94.477,177.179 94.424 C 177.006 94.317,176.747 94.969,176.901 95.124 C 176.956 95.178,177.000 95.124,177.000 95.004 C 177.000 94.885,177.131 94.691,177.291 94.574 C 177.452 94.456,177.527 94.304,177.458 94.236 C 177.389 94.167,177.333 94.203,177.333 94.315 M198.167 94.508 C 197.984 94.631,198.052 94.647,198.417 94.565 C 199.029 94.428,199.163 94.332,198.736 94.336 C 198.560 94.337,198.304 94.415,198.167 94.508 M201.167 94.500 C 201.396 94.573,201.733 94.633,201.917 94.633 C 202.181 94.633,202.163 94.606,201.833 94.500 C 201.604 94.427,201.267 94.367,201.083 94.367 C 200.819 94.367,200.837 94.394,201.167 94.500 M194.382 95.231 C 194.088 95.333,193.755 95.510,193.641 95.624 C 193.470 95.796,194.716 95.420,194.986 95.219 C 195.195 95.062,194.845 95.069,194.382 95.231 M177.540 96.292 C 174.671 101.714,176.507 105.579,182.422 106.571 L 183.095 106.684 183.134 104.875 L 183.173 103.066 182.602 103.133 C 181.278 103.287,179.150 102.305,178.419 101.201 C 177.995 100.560,177.570 98.085,177.984 98.667 C 178.082 98.804,178.163 99.037,178.164 99.185 C 178.169 99.670,179.455 100.940,180.319 101.311 C 181.581 101.854,183.167 102.037,183.167 101.639 C 183.167 101.390,183.034 101.333,182.447 101.333 C 179.585 101.333,178.025 99.562,178.275 96.597 C 178.406 95.056,178.231 94.984,177.540 96.292 M221.438 95.708 C 221.383 95.915,221.346 96.308,221.355 96.583 L 221.373 97.083 221.514 96.583 C 221.609 96.244,221.628 96.451,221.570 97.230 C 221.386 99.748,220.235 100.957,217.691 101.305 C 216.836 101.422,216.668 101.403,216.603 101.180 C 216.560 101.035,216.538 102.210,216.554 103.792 C 216.570 105.373,216.635 106.667,216.697 106.667 C 216.760 106.667,217.329 106.558,217.961 106.425 C 223.222 105.318,224.803 101.795,222.332 96.684 C 221.613 95.199,221.584 95.166,221.438 95.708 M223.012 95.417 C 223.012 95.508,223.119 95.771,223.250 96.000 C 223.381 96.229,223.488 96.342,223.488 96.250 C 223.488 96.158,223.381 95.896,223.250 95.667 C 223.119 95.438,223.012 95.325,223.012 95.417 M178.115 96.625 C 178.073 96.785,178.039 96.654,178.039 96.333 C 178.039 96.013,178.073 95.881,178.115 96.042 C 178.157 96.202,178.157 96.465,178.115 96.625 M191.571 97.329 C 191.482 97.418,190.135 97.514,188.579 97.542 L 185.750 97.592 188.605 97.629 C 190.971 97.660,191.495 97.624,191.667 97.417 C 191.897 97.139,191.826 97.074,191.571 97.329 M209.966 97.624 C 210.727 97.655,211.927 97.655,212.633 97.624 C 213.339 97.593,212.717 97.567,211.250 97.567 C 209.783 97.568,209.206 97.593,209.966 97.624 M183.333 98.384 C 183.020 98.642,182.620 99.336,182.790 99.326 C 182.860 99.322,183.082 99.060,183.284 98.743 C 183.486 98.426,183.636 98.169,183.617 98.172 C 183.599 98.175,183.471 98.270,183.333 98.384 M221.598 100.226 C 221.140 101.801,219.756 102.815,217.625 103.138 L 216.667 103.283 216.667 102.577 L 216.667 101.872 217.615 101.753 C 219.541 101.513,221.020 100.491,221.521 99.056 C 221.868 98.063,221.934 99.070,221.598 100.226 M186.718 98.958 C 187.800 98.987,189.525 98.987,190.551 98.958 C 191.577 98.928,190.692 98.905,188.583 98.905 C 186.475 98.905,185.635 98.929,186.718 98.958 M209.292 98.958 C 210.323 98.987,212.010 98.987,213.042 98.958 C 214.073 98.929,213.229 98.905,211.167 98.905 C 209.104 98.905,208.260 98.929,209.292 98.958 M220.261 99.625 C 219.901 100.085,219.872 100.163,220.151 99.919 C 220.486 99.627,220.926 99.000,220.798 99.000 C 220.771 99.000,220.530 99.281,220.261 99.625 M175.050 101.000 C 175.050 101.504,175.081 101.710,175.119 101.458 C 175.158 101.206,175.158 100.794,175.119 100.542 C 175.081 100.290,175.050 100.496,175.050 101.000 M213.734 100.808 C 213.816 100.940,213.655 101.001,213.218 101.003 C 212.284 101.006,212.085 101.188,212.496 101.663 C 212.682 101.876,212.827 102.133,212.820 102.234 C 212.813 102.340,212.772 102.329,212.723 102.208 C 212.606 101.918,212.333 101.947,212.333 102.250 C 212.333 102.388,212.202 102.501,212.042 102.502 C 211.825 102.504,211.858 102.562,212.167 102.725 C 212.556 102.931,212.623 102.902,213.198 102.282 L 213.813 101.619 213.877 102.435 C 213.928 103.092,213.946 103.018,213.970 102.052 C 213.989 101.295,213.929 100.809,213.808 100.734 C 213.688 100.660,213.660 100.688,213.734 100.808 M182.042 100.948 C 182.202 100.990,182.465 100.990,182.625 100.948 C 182.785 100.906,182.654 100.872,182.333 100.872 C 182.012 100.872,181.881 100.906,182.042 100.948 M210.742 101.453 C 210.491 101.835,210.496 101.863,210.821 101.949 C 211.011 101.998,211.167 102.105,211.167 102.186 C 211.167 102.267,211.279 102.333,211.417 102.333 C 211.554 102.333,211.668 102.240,211.669 102.125 C 211.670 102.010,211.714 101.758,211.766 101.564 C 211.916 101.005,211.094 100.916,210.742 101.453 M175.501 103.779 C 175.502 104.037,176.748 105.549,177.167 105.801 L 177.583 106.052 177.152 105.651 C 176.915 105.430,176.447 104.888,176.111 104.446 C 175.775 104.003,175.500 103.703,175.501 103.779 M220.667 106.776 C 220.437 106.897,220.362 106.995,220.500 106.995 C 220.787 106.995,221.279 106.717,221.162 106.620 C 221.119 106.585,220.896 106.655,220.667 106.776 M179.553 107.118 C 179.696 107.349,180.333 107.512,180.333 107.318 C 180.333 107.235,180.264 107.167,180.180 107.167 C 180.096 107.167,179.896 107.116,179.736 107.055 C 179.553 106.985,179.485 107.008,179.553 107.118 M219.625 107.115 C 219.465 107.157,219.333 107.261,219.333 107.346 C 219.333 107.564,219.531 107.529,219.907 107.245 C 220.231 107.000,220.171 106.972,219.625 107.115 M182.536 113.615 C 182.516 116.933,182.556 119.682,182.625 119.724 C 182.739 119.795,182.736 115.245,182.619 109.750 C 182.594 108.558,182.556 110.298,182.536 113.615 M192.721 109.417 C 192.722 110.058,192.752 110.300,192.788 109.955 C 192.824 109.609,192.824 109.084,192.787 108.788 C 192.750 108.492,192.721 108.775,192.721 109.417 M185.771 117.256 C 185.598 117.705,185.653 118.587,185.867 118.800 C 186.117 119.051,189.667 119.082,189.667 118.833 C 189.667 118.742,189.292 118.667,188.833 118.667 C 188.375 118.667,188.000 118.592,188.000 118.500 C 188.000 118.408,187.733 118.333,187.407 118.333 C 187.054 118.333,186.855 118.266,186.917 118.167 C 186.973 118.075,187.240 118.000,187.510 118.000 C 188.290 118.000,188.077 117.698,187.208 117.573 C 186.773 117.510,186.295 117.353,186.146 117.222 C 185.910 117.016,185.861 117.021,185.771 117.256 M186.500 118.167 C 186.702 118.297,186.678 118.329,186.375 118.331 C 186.169 118.332,186.000 118.258,186.000 118.167 C 186.000 117.958,186.177 117.958,186.500 118.167 M182.667 120.362 C 182.667 120.469,182.536 120.713,182.376 120.904 C 182.159 121.162,182.200 121.149,182.538 120.851 C 182.786 120.631,182.950 120.387,182.902 120.309 C 182.777 120.108,182.667 120.132,182.667 120.362 M183.367 121.791 C 182.879 122.212,179.492 127.352,179.593 127.516 C 180.090 128.320,220.185 128.247,220.161 127.442 C 220.158 127.336,219.276 125.975,218.203 124.417 L 216.250 121.583 199.978 121.541 C 184.667 121.501,183.686 121.516,183.367 121.791 M186.894 122.375 C 186.861 122.778,187.274 122.743,187.382 122.333 C 187.453 122.062,187.609 122.000,188.225 122.000 C 189.009 122.000,189.339 122.228,189.019 122.548 C 188.917 122.650,188.833 122.868,188.833 123.033 C 188.833 123.307,188.642 123.333,186.667 123.333 C 184.508 123.333,183.978 123.165,184.721 122.717 C 184.842 122.643,184.992 122.448,185.052 122.283 C 185.213 121.848,186.929 121.934,186.894 122.375 M191.167 122.273 C 191.167 122.424,191.291 122.637,191.442 122.748 C 191.929 123.104,191.527 123.333,190.417 123.333 C 189.356 123.333,188.962 123.138,189.315 122.785 C 189.417 122.683,189.500 122.465,189.500 122.300 C 189.500 122.051,189.642 122.000,190.333 122.000 C 190.995 122.000,191.167 122.056,191.167 122.273 M193.285 122.333 C 193.392 122.743,193.805 122.778,193.773 122.375 C 193.754 122.133,193.892 122.083,194.583 122.083 C 195.275 122.083,195.413 122.133,195.394 122.375 C 195.361 122.784,195.775 122.741,195.884 122.324 C 195.961 122.028,196.084 121.988,196.766 122.032 C 197.601 122.086,197.969 122.452,197.351 122.614 C 197.151 122.666,197.000 122.840,197.000 123.019 C 197.000 123.297,196.864 123.333,195.814 123.333 C 194.710 123.333,194.634 123.310,194.715 123.000 C 194.778 122.758,194.720 122.667,194.503 122.667 C 194.320 122.667,194.213 122.780,194.227 122.958 C 194.247 123.211,194.092 123.250,193.083 123.250 C 192.157 123.250,191.917 123.198,191.917 123.000 C 191.917 122.862,191.811 122.668,191.683 122.567 C 191.293 122.261,191.643 122.000,192.442 122.000 C 193.058 122.000,193.214 122.062,193.285 122.333 M199.618 122.708 L 199.653 123.333 198.493 123.333 C 197.293 123.333,196.864 122.996,197.679 122.695 C 197.869 122.624,198.019 122.514,198.012 122.450 C 197.968 122.035,198.061 121.986,198.792 122.033 C 199.579 122.083,199.584 122.087,199.618 122.708 M201.614 122.318 C 201.660 122.493,201.848 122.675,202.033 122.724 C 202.761 122.914,202.223 123.250,201.112 123.299 L 200.000 123.349 200.000 122.674 L 200.000 122.000 200.766 122.000 C 201.379 122.000,201.548 122.063,201.614 122.318 M203.785 122.333 C 203.892 122.743,204.305 122.778,204.273 122.375 C 204.254 122.133,204.392 122.083,205.083 122.083 C 205.775 122.083,205.913 122.133,205.894 122.375 C 205.881 122.535,205.975 122.667,206.102 122.667 C 206.229 122.667,206.333 122.517,206.333 122.333 C 206.333 121.880,207.780 121.834,207.952 122.282 C 208.012 122.439,207.973 122.592,207.863 122.629 C 207.755 122.665,207.667 122.842,207.667 123.022 C 207.667 123.319,207.565 123.344,206.542 123.299 C 205.589 123.258,205.420 123.205,205.440 122.958 C 205.454 122.780,205.346 122.667,205.164 122.667 C 204.947 122.667,204.888 122.758,204.952 123.000 C 205.033 123.310,204.957 123.333,203.853 123.333 C 202.778 123.333,202.667 123.302,202.667 123.000 C 202.667 122.817,202.559 122.667,202.427 122.667 C 202.132 122.667,201.944 122.392,202.083 122.167 C 202.291 121.831,203.690 121.968,203.785 122.333 M210.226 122.542 C 210.536 123.280,210.470 123.333,209.250 123.333 C 208.142 123.333,207.738 123.104,208.222 122.750 C 208.372 122.640,208.451 122.507,208.397 122.453 C 208.163 122.218,208.578 122.000,209.259 122.000 C 209.936 122.000,210.018 122.046,210.226 122.542 M212.285 122.333 C 212.333 122.517,212.469 122.667,212.587 122.667 C 212.720 122.667,212.769 122.539,212.715 122.333 C 212.635 122.029,212.710 122.000,213.579 122.000 C 214.380 122.000,214.545 122.051,214.615 122.322 C 214.662 122.499,214.805 122.684,214.933 122.733 C 215.062 122.783,215.167 122.940,215.167 123.083 C 215.167 123.466,210.752 123.383,210.746 123.000 C 210.743 122.862,210.682 122.656,210.611 122.542 C 210.385 122.180,210.661 122.000,211.442 122.000 C 212.058 122.000,212.214 122.062,212.285 122.333 M219.304 123.922 C 219.733 124.629,220.000 124.850,220.000 124.500 C 220.000 124.408,219.934 124.333,219.854 124.333 C 219.773 124.333,219.616 124.114,219.505 123.845 C 219.394 123.577,219.203 123.319,219.081 123.272 C 218.957 123.225,219.056 123.511,219.304 123.922 M189.667 123.833 C 189.667 124.154,189.556 124.167,186.833 124.167 C 184.044 124.167,183.638 124.084,184.111 123.611 C 184.435 123.287,189.667 123.496,189.667 123.833 M192.211 123.600 C 192.531 123.920,192.068 124.167,191.149 124.167 C 190.278 124.167,190.167 124.129,190.167 123.833 C 190.167 123.505,191.916 123.305,192.211 123.600 M194.667 123.833 C 194.667 124.129,194.556 124.167,193.694 124.167 C 192.648 124.167,192.473 124.097,192.613 123.734 C 192.771 123.321,194.667 123.412,194.667 123.833 M197.167 123.833 C 197.167 124.130,197.056 124.167,196.167 124.167 C 195.278 124.167,195.167 124.130,195.167 123.833 C 195.167 123.537,195.278 123.500,196.167 123.500 C 197.056 123.500,197.167 123.537,197.167 123.833 M199.636 123.792 C 199.572 124.124,197.915 124.315,197.624 124.024 C 197.301 123.701,197.708 123.500,198.689 123.500 C 199.553 123.500,199.683 123.540,199.636 123.792 M202.000 123.833 C 202.000 124.130,201.889 124.167,201.000 124.167 C 200.111 124.167,200.000 124.130,200.000 123.833 C 200.000 123.537,200.111 123.500,201.000 123.500 C 201.889 123.500,202.000 123.537,202.000 123.833 M204.500 123.841 C 204.500 124.317,202.456 124.270,202.364 123.792 C 202.316 123.538,202.451 123.500,203.404 123.500 C 204.397 123.500,204.500 123.532,204.500 123.841 M207.000 123.841 C 207.000 124.317,204.956 124.270,204.864 123.792 C 204.816 123.538,204.951 123.500,205.904 123.500 C 206.897 123.500,207.000 123.532,207.000 123.841 M209.500 123.841 C 209.500 124.317,207.456 124.270,207.364 123.792 C 207.316 123.538,207.451 123.500,208.404 123.500 C 209.397 123.500,209.500 123.532,209.500 123.841 M215.635 123.875 C 215.683 124.127,215.553 124.167,214.684 124.167 C 213.857 124.167,213.694 124.211,213.773 124.417 C 213.851 124.621,213.695 124.667,212.917 124.667 C 212.152 124.667,211.983 124.619,212.057 124.424 C 212.132 124.229,211.930 124.172,211.035 124.132 C 210.123 124.092,209.910 124.030,209.864 123.788 C 209.811 123.512,210.006 123.495,212.693 123.538 C 215.288 123.579,215.585 123.613,215.635 123.875 M179.993 124.176 C 179.794 124.457,179.658 124.714,179.692 124.748 C 179.726 124.782,179.922 124.552,180.128 124.238 C 180.593 123.529,180.488 123.481,179.993 124.176 M186.833 124.511 C 186.833 125.208,186.526 125.333,184.827 125.333 C 183.084 125.333,183.009 125.300,183.426 124.704 C 183.714 124.292,186.833 124.116,186.833 124.511 M190.565 124.471 C 190.960 125.109,190.482 125.333,188.731 125.333 C 187.779 125.333,187.000 125.301,187.000 125.261 C 187.000 124.482,187.306 124.333,188.903 124.333 C 189.770 124.333,190.519 124.395,190.565 124.471 M205.969 124.875 L 206.022 125.333 198.521 125.333 C 190.774 125.333,190.778 125.334,191.015 124.707 L 191.157 124.330 198.537 124.373 L 205.917 124.417 205.969 124.875 M209.066 124.597 C 209.322 125.266,209.212 125.333,207.853 125.333 C 206.539 125.333,206.076 125.052,206.435 124.471 C 206.604 124.197,208.955 124.310,209.066 124.597 M212.000 125.083 C 212.000 125.278,211.778 125.333,211.000 125.333 C 210.222 125.333,210.000 125.278,210.000 125.083 C 210.000 124.889,210.222 124.833,211.000 124.833 C 211.778 124.833,212.000 124.889,212.000 125.083 M214.126 125.125 C 214.175 125.275,213.934 125.333,213.264 125.333 C 212.534 125.333,212.333 125.278,212.333 125.075 C 212.333 124.747,214.017 124.795,214.126 125.125 M216.333 125.083 C 216.333 125.278,216.111 125.333,215.333 125.333 C 214.556 125.333,214.333 125.278,214.333 125.083 C 214.333 124.889,214.556 124.833,215.333 124.833 C 216.111 124.833,216.333 124.889,216.333 125.083 M220.005 130.601 L 219.426 131.000 199.838 130.999 C 180.464 130.999,180.244 130.995,179.667 130.661 L 179.083 130.323 179.583 130.744 L 180.083 131.165 199.697 131.166 C 211.935 131.166,219.457 131.106,219.697 131.006 C 220.170 130.808,220.751 130.361,220.654 130.269 C 220.615 130.232,220.323 130.381,220.005 130.601 " stroke="none" fill="#707070" fill-rule="evenodd"></path><path id="path2" d="M220.212 95.833 C 220.212 96.246,220.245 96.415,220.284 96.208 C 220.324 96.002,220.324 95.665,220.284 95.458 C 220.245 95.252,220.212 95.421,220.212 95.833 M178.039 96.333 C 178.039 96.654,178.073 96.785,178.115 96.625 C 178.157 96.465,178.157 96.202,178.115 96.042 C 178.073 95.881,178.039 96.013,178.039 96.333 M221.352 97.295 C 220.956 99.510,219.934 100.559,217.855 100.887 C 216.355 101.123,216.198 101.509,217.685 101.306 C 220.206 100.961,221.341 99.791,221.599 97.272 C 221.746 95.840,221.609 95.853,221.352 97.295 M178.179 97.385 C 178.122 99.630,179.963 101.333,182.447 101.333 C 183.527 101.333,183.313 101.063,182.134 100.940 C 180.104 100.727,179.029 99.847,178.486 97.951 C 178.282 97.238,178.187 97.062,178.179 97.385 M184.960 97.618 C 185.168 97.658,185.468 97.656,185.627 97.615 C 185.786 97.573,185.617 97.540,185.250 97.542 C 184.883 97.544,184.753 97.578,184.960 97.618 M214.127 97.618 C 214.334 97.658,214.634 97.656,214.794 97.615 C 214.953 97.573,214.783 97.540,214.417 97.542 C 214.050 97.544,213.920 97.578,214.127 97.618 M177.904 99.493 C 178.068 101.289,179.022 102.325,181.060 102.917 C 182.517 103.341,183.083 103.224,183.083 102.501 L 183.083 101.918 182.129 101.799 C 180.327 101.574,178.173 100.154,178.164 99.185 C 178.163 99.037,178.082 98.804,177.984 98.667 C 177.854 98.484,177.833 98.708,177.904 99.493 M221.521 99.056 C 221.020 100.491,219.541 101.513,217.615 101.753 L 216.667 101.872 216.667 102.577 L 216.667 103.283 217.625 103.138 C 220.253 102.739,222.046 100.910,221.800 98.877 C 221.747 98.433,221.737 98.439,221.521 99.056 M224.611 100.278 C 224.438 100.451,224.481 101.468,224.667 101.583 C 224.768 101.646,224.833 101.391,224.833 100.927 C 224.833 100.154,224.808 100.081,224.611 100.278 M191.154 105.851 C 190.784 106.370,190.884 106.657,191.437 106.664 C 192.170 106.674,195.392 107.980,196.620 108.766 C 197.649 109.424,197.762 109.445,197.994 109.011 C 198.231 108.569,198.211 108.447,197.919 108.560 C 197.773 108.616,197.137 108.270,196.377 107.722 C 195.031 106.752,192.323 105.333,191.815 105.333 C 191.654 105.333,191.357 105.566,191.154 105.851 M206.032 106.085 C 205.205 106.499,203.959 107.246,203.263 107.746 C 202.521 108.279,201.894 108.615,201.748 108.560 C 201.434 108.439,201.430 108.675,201.739 109.093 C 201.970 109.406,201.994 109.407,202.447 109.120 C 203.646 108.363,205.566 107.491,207.125 106.997 C 208.992 106.405,208.988 106.408,208.488 105.772 C 208.022 105.180,207.778 105.211,206.032 106.085 M193.006 107.989 C 192.712 108.538,192.797 110.696,193.129 111.105 C 194.287 112.535,196.333 111.726,196.333 109.839 L 196.333 108.978 194.934 108.323 C 193.325 107.569,193.239 107.554,193.006 107.989 M205.167 108.141 C 203.305 108.940,203.295 108.950,203.377 109.986 C 203.499 111.521,204.712 112.249,206.021 111.572 C 206.923 111.106,207.315 109.259,206.746 108.158 C 206.439 107.565,206.506 107.566,205.167 108.141 M217.075 113.667 C 217.075 116.921,217.097 118.252,217.125 116.625 C 217.152 114.998,217.152 112.335,217.125 110.708 C 217.097 109.081,217.075 110.412,217.075 113.667 M195.835 113.375 C 195.838 113.837,196.841 115.293,197.442 115.710 C 199.505 117.139,202.212 116.496,203.409 114.294 C 204.068 113.082,203.882 112.942,202.849 113.871 C 201.060 115.479,198.285 115.420,196.656 113.739 C 196.072 113.136,195.832 113.030,195.835 113.375 M177.911 127.850 C 177.850 128.043,177.883 128.283,177.983 128.383 C 178.117 128.517,178.167 128.421,178.167 128.033 C 178.167 127.418,178.070 127.349,177.911 127.850 " stroke="none" fill="#cbcdcb" fill-rule="evenodd"></path><path id="path3" d="M210.820 100.917 C 210.632 101.105,210.190 101.192,209.290 101.216 C 208.003 101.251,207.468 101.680,208.013 102.242 C 208.251 102.487,208.195 102.833,207.917 102.833 C 207.778 102.833,207.667 102.981,207.667 103.167 C 207.667 103.350,207.600 103.500,207.519 103.500 C 207.438 103.500,207.333 103.650,207.285 103.833 C 207.237 104.017,207.060 104.168,206.891 104.169 C 206.636 104.171,206.626 104.198,206.829 104.327 C 207.039 104.460,207.033 104.498,206.787 104.592 C 206.596 104.666,206.389 104.571,206.172 104.310 C 205.854 103.929,205.844 103.927,205.839 104.264 C 205.836 104.465,205.648 104.710,205.391 104.847 C 205.148 104.977,204.847 105.327,204.722 105.625 C 204.514 106.123,204.000 106.389,204.000 106.000 C 204.000 105.718,203.625 105.815,203.210 106.204 C 202.896 106.499,202.787 106.529,202.676 106.349 C 202.509 106.078,201.740 106.559,201.578 107.035 C 201.416 107.514,201.827 108.136,202.047 107.744 C 202.171 107.522,202.165 107.416,202.027 107.370 C 201.745 107.276,201.790 106.886,202.097 106.768 C 202.509 106.610,203.133 106.649,203.196 106.838 C 203.227 106.932,203.756 106.678,204.371 106.274 C 204.985 105.871,205.603 105.496,205.744 105.442 C 205.885 105.388,206.000 105.191,206.000 105.005 C 206.000 104.646,206.263 104.538,206.368 104.854 C 206.409 104.976,206.622 105.000,206.977 104.922 C 207.285 104.854,207.493 104.718,207.452 104.609 C 207.413 104.503,207.521 104.272,207.691 104.096 C 208.003 103.772,208.123 103.941,208.015 104.556 C 208.002 104.632,208.175 104.840,208.400 105.017 C 209.391 105.796,209.721 106.778,209.042 106.928 C 207.343 107.304,206.823 107.590,207.185 107.951 C 207.554 108.320,207.569 110.212,207.210 111.025 C 206.376 112.909,203.504 112.699,202.846 110.706 C 202.619 110.017,201.470 109.571,201.269 110.094 C 201.138 110.435,200.421 110.252,200.363 109.862 C 200.334 109.663,200.393 109.500,200.494 109.500 C 200.625 109.500,200.628 109.406,200.506 109.178 C 200.295 108.783,200.289 108.667,200.481 108.667 C 200.666 108.667,200.879 109.313,200.835 109.742 C 200.806 110.015,200.842 110.034,201.053 109.858 C 201.276 109.674,201.250 109.542,200.835 108.753 C 200.576 108.261,200.405 107.817,200.456 107.766 C 200.506 107.716,200.461 107.570,200.354 107.442 C 200.248 107.314,200.208 107.087,200.265 106.938 C 200.389 106.613,199.935 106.573,199.221 106.844 C 198.497 107.120,197.617 106.904,197.832 106.503 C 197.924 106.330,198.000 105.959,198.000 105.678 C 198.000 105.397,198.075 105.167,198.167 105.167 C 198.258 105.167,198.331 105.035,198.328 104.875 C 198.323 104.599,198.314 104.600,198.151 104.879 C 198.057 105.041,197.901 105.125,197.804 105.065 C 197.708 105.006,197.566 105.060,197.488 105.186 C 197.376 105.367,197.305 105.372,197.140 105.207 C 197.026 105.093,196.795 105.000,196.625 105.000 C 196.134 105.000,195.306 104.518,194.559 103.798 L 193.868 103.132 193.518 103.482 C 193.078 103.922,192.827 103.928,192.715 103.500 C 192.627 103.164,192.167 103.024,192.167 103.333 C 192.167 103.425,192.053 103.500,191.915 103.500 C 191.714 103.500,191.684 103.364,191.770 102.830 C 191.862 102.255,191.838 102.175,191.605 102.265 C 191.387 102.349,191.334 102.260,191.339 101.809 L 191.345 101.250 191.583 101.667 L 191.822 102.083 191.827 101.667 L 191.833 101.250 188.859 101.249 L 185.885 101.249 185.776 106.333 C 185.630 113.175,185.642 117.463,185.809 117.200 C 185.920 117.026,185.984 117.030,186.143 117.221 C 186.251 117.351,186.713 117.507,187.170 117.568 C 188.066 117.687,188.313 118.000,187.510 118.000 C 187.240 118.000,186.973 118.075,186.917 118.167 C 186.855 118.266,187.054 118.333,187.407 118.333 C 187.733 118.333,188.000 118.408,188.000 118.500 C 188.000 118.592,188.375 118.667,188.833 118.667 C 189.292 118.667,189.667 118.743,189.667 118.836 C 189.667 119.081,213.487 119.052,213.782 118.807 C 214.018 118.611,214.109 105.097,213.891 102.784 L 213.784 101.652 213.184 102.298 C 212.623 102.902,212.556 102.930,212.167 102.725 C 211.858 102.562,211.825 102.504,212.042 102.502 C 212.202 102.501,212.333 102.388,212.333 102.250 C 212.333 101.947,212.606 101.918,212.723 102.208 C 212.772 102.329,212.813 102.340,212.820 102.234 C 212.827 102.133,212.682 101.876,212.496 101.663 C 212.087 101.191,212.283 101.006,213.198 101.003 C 214.507 100.997,213.914 100.709,212.538 100.681 C 211.403 100.659,211.025 100.711,210.820 100.917 M211.766 101.564 C 211.714 101.758,211.670 102.010,211.669 102.125 C 211.668 102.240,211.554 102.333,211.417 102.333 C 211.279 102.333,211.167 102.267,211.167 102.186 C 211.167 102.105,211.011 101.998,210.821 101.949 C 210.496 101.863,210.491 101.835,210.742 101.453 C 211.094 100.916,211.916 101.005,211.766 101.564 M209.257 102.914 C 208.730 103.603,208.275 104.167,208.248 104.167 C 208.140 104.167,208.382 103.490,208.520 103.404 C 208.722 103.279,208.705 102.667,208.500 102.667 C 208.408 102.667,208.333 102.554,208.333 102.417 C 208.333 102.279,208.408 102.167,208.500 102.167 C 208.592 102.167,208.667 102.279,208.667 102.417 C 208.667 102.872,209.244 102.674,209.649 102.078 C 209.869 101.756,210.086 101.531,210.133 101.577 C 210.179 101.623,209.785 102.225,209.257 102.914 M190.500 104.583 C 190.500 104.721,190.425 104.833,190.333 104.833 C 190.242 104.833,190.167 104.721,190.167 104.583 C 190.167 104.446,190.242 104.333,190.333 104.333 C 190.425 104.333,190.500 104.446,190.500 104.583 M191.667 104.500 C 191.667 104.592,191.745 104.667,191.841 104.667 C 192.207 104.667,195.025 106.162,196.400 107.086 C 197.702 107.962,197.876 108.034,198.259 107.859 C 198.918 107.559,199.038 107.615,198.917 108.167 C 198.831 108.558,198.864 108.667,199.070 108.667 C 199.215 108.667,199.333 108.742,199.333 108.833 C 199.333 108.925,199.202 109.001,199.042 109.001 C 198.881 109.002,198.663 109.190,198.557 109.418 C 198.312 109.947,198.723 110.018,199.002 109.495 C 199.102 109.309,199.255 109.201,199.342 109.255 C 199.802 109.539,199.007 110.413,198.422 110.266 C 198.190 110.208,198.000 110.087,198.000 109.997 C 198.000 109.907,197.737 109.833,197.417 109.833 C 196.864 109.833,196.833 109.863,196.833 110.404 C 196.833 112.678,193.059 112.950,192.326 110.728 C 192.132 110.139,192.177 108.329,192.399 107.819 C 192.489 107.613,192.326 107.495,191.655 107.278 C 190.628 106.946,190.224 106.928,190.110 107.208 C 190.064 107.323,190.050 107.079,190.080 106.667 C 190.109 106.254,190.141 105.810,190.150 105.681 C 190.159 105.551,190.218 105.495,190.280 105.558 C 190.427 105.705,191.333 104.839,191.333 104.552 C 191.333 104.432,191.408 104.333,191.500 104.333 C 191.592 104.333,191.667 104.408,191.667 104.500 M213.667 111.593 C 213.667 115.613,213.610 117.651,213.500 117.583 C 213.394 117.518,213.333 115.304,213.333 111.490 C 213.333 107.608,213.392 105.500,213.500 105.500 C 213.608 105.500,213.667 107.642,213.667 111.593 M212.833 106.083 C 212.716 106.225,212.582 106.304,212.536 106.258 C 212.490 106.212,212.549 106.059,212.667 105.917 C 212.784 105.775,212.918 105.696,212.964 105.742 C 213.010 105.788,212.951 105.941,212.833 106.083 M212.997 111.875 C 212.996 115.299,212.940 116.998,212.833 116.833 C 212.531 116.365,212.627 106.667,212.934 106.667 C 212.971 106.667,212.999 109.010,212.997 111.875 M200.778 106.944 C 200.551 107.171,200.677 107.500,200.990 107.500 C 201.210 107.500,201.305 107.394,201.288 107.167 C 201.263 106.840,200.998 106.724,200.778 106.944 M202.505 107.160 C 202.370 107.245,202.316 107.371,202.384 107.439 C 202.452 107.508,202.635 107.437,202.790 107.282 C 203.091 106.981,202.911 106.904,202.505 107.160 M211.210 108.517 C 211.122 108.854,210.333 109.832,210.333 109.604 C 210.333 109.485,211.180 108.167,211.257 108.167 C 211.282 108.167,211.261 108.324,211.210 108.517 M188.958 108.542 C 188.920 108.656,188.754 108.776,188.589 108.808 C 188.330 108.858,188.320 108.831,188.520 108.606 C 188.798 108.292,189.054 108.254,188.958 108.542 M209.560 111.083 C 209.459 111.348,209.167 111.430,209.167 111.194 C 209.167 111.018,209.349 110.833,209.523 110.833 C 209.596 110.833,209.613 110.946,209.560 111.083 M197.167 111.417 C 197.167 111.646,197.092 111.833,197.001 111.833 C 196.871 111.833,196.865 111.454,196.988 111.042 C 197.048 110.838,197.167 111.086,197.167 111.417 M208.667 112.333 C 208.667 112.425,208.607 112.500,208.533 112.500 C 208.460 112.500,208.431 112.763,208.468 113.083 C 208.527 113.582,208.487 113.667,208.195 113.667 C 207.669 113.667,207.609 113.383,208.002 112.747 C 208.348 112.187,208.667 111.989,208.667 112.333 M199.750 112.500 C 199.807 112.592,199.694 112.667,199.500 112.667 C 199.306 112.667,199.193 112.592,199.250 112.500 C 199.307 112.408,199.419 112.333,199.500 112.333 C 199.581 112.333,199.693 112.408,199.750 112.500 M197.000 113.275 C 198.556 114.924,201.126 114.945,202.718 113.320 C 203.997 112.016,204.892 112.934,203.934 114.568 C 202.024 117.829,197.373 117.749,195.748 114.428 C 194.921 112.737,195.762 111.962,197.000 113.275 M201.622 113.267 C 201.582 113.307,201.369 113.262,201.149 113.166 C 200.770 112.999,200.769 112.994,201.125 113.063 C 201.388 113.114,201.506 113.053,201.519 112.859 C 201.535 112.632,201.553 112.637,201.617 112.888 C 201.661 113.056,201.663 113.226,201.622 113.267 M186.000 118.167 C 186.000 118.258,186.169 118.332,186.375 118.331 C 186.678 118.329,186.702 118.297,186.500 118.167 C 186.177 117.958,186.000 117.958,186.000 118.167 " stroke="none" fill="#1f5075" fill-rule="evenodd"></path><path id="path4" d="M177.667 94.176 C 177.471 94.320,177.521 94.337,177.893 94.256 C 178.190 94.191,178.508 94.243,178.740 94.395 C 179.018 94.577,179.111 94.586,179.111 94.430 C 179.111 94.316,179.030 94.213,178.931 94.201 C 178.831 94.190,178.563 94.138,178.333 94.086 C 178.104 94.034,177.804 94.075,177.667 94.176 M220.958 94.115 C 220.798 94.157,220.667 94.263,220.667 94.351 C 220.667 94.445,220.812 94.434,221.017 94.324 C 221.210 94.221,221.510 94.174,221.684 94.219 C 221.858 94.265,221.958 94.234,221.907 94.151 C 221.811 93.995,221.467 93.982,220.958 94.115 M199.000 94.497 C 198.571 94.589,198.833 94.629,199.986 94.645 C 200.849 94.657,201.524 94.639,201.486 94.604 C 201.324 94.458,199.536 94.381,199.000 94.497 M197.000 94.620 C 196.771 94.661,196.518 94.758,196.438 94.834 C 196.311 94.956,197.468 94.766,197.917 94.591 C 198.136 94.506,197.530 94.525,197.000 94.620 M202.417 94.648 C 202.963 94.869,203.923 95.021,203.745 94.858 C 203.656 94.776,203.246 94.665,202.833 94.611 C 202.384 94.552,202.217 94.567,202.417 94.648 M179.383 96.333 C 179.383 96.837,179.415 97.044,179.453 96.792 C 179.491 96.540,179.491 96.127,179.453 95.875 C 179.415 95.623,179.383 95.829,179.383 96.333 M199.167 95.667 C 198.992 95.779,199.244 95.824,200.000 95.814 C 200.793 95.804,200.972 95.764,200.667 95.667 C 200.077 95.478,199.459 95.478,199.167 95.667 M196.845 95.848 C 195.567 96.099,194.102 96.652,193.583 97.081 C 193.111 97.471,193.134 97.467,194.000 97.014 C 194.971 96.506,196.921 96.000,197.908 96.000 C 198.234 96.000,198.500 95.925,198.500 95.833 C 198.500 95.639,197.885 95.644,196.845 95.848 M201.583 95.831 C 201.313 95.949,201.366 95.979,201.864 95.988 C 202.843 96.007,204.834 96.477,205.832 96.924 C 206.619 97.278,206.691 97.289,206.333 97.002 C 205.482 96.318,202.278 95.529,201.583 95.831 M175.928 97.042 C 175.637 97.753,175.436 98.438,175.548 98.333 C 175.682 98.208,176.313 96.500,176.225 96.500 C 176.184 96.500,176.050 96.744,175.928 97.042 M201.833 96.917 C 202.086 97.221,201.765 97.259,201.094 97.004 C 200.679 96.846,200.481 97.032,200.833 97.250 C 201.159 97.452,201.006 97.682,200.667 97.500 C 200.392 97.353,200.332 97.374,200.328 97.619 C 200.323 97.869,200.265 97.849,199.970 97.500 L 199.619 97.083 199.704 97.546 C 199.828 98.223,199.603 98.241,198.930 97.607 L 198.333 97.044 198.333 97.501 C 198.333 97.878,198.260 97.958,197.917 97.958 C 197.580 97.958,197.500 97.876,197.500 97.530 L 197.500 97.101 196.950 97.634 C 196.288 98.276,196.122 98.306,196.335 97.745 C 196.485 97.351,196.473 97.336,196.139 97.515 C 195.829 97.681,195.797 97.667,195.895 97.412 C 196.021 97.084,195.622 97.330,195.214 97.833 C 194.950 98.158,194.939 98.461,195.200 98.200 C 195.611 97.789,195.795 97.979,195.710 98.728 C 195.598 99.721,195.850 99.793,196.321 98.905 C 196.716 98.160,197.000 97.956,197.000 98.417 C 197.000 98.714,197.277 98.752,197.372 98.467 C 197.409 98.357,197.675 98.611,197.964 99.030 C 198.620 99.984,199.060 100.221,198.802 99.482 C 198.485 98.573,199.280 98.853,200.730 100.161 L 201.377 100.745 201.252 100.164 C 201.183 99.845,201.021 99.377,200.892 99.125 C 200.636 98.623,200.686 98.576,201.190 98.846 C 201.497 99.010,201.509 98.995,201.332 98.665 C 201.023 98.087,201.271 98.078,202.165 98.634 C 203.032 99.173,203.312 99.103,202.583 98.530 C 201.766 97.887,202.183 97.646,203.375 98.071 C 204.144 98.345,204.179 98.151,203.458 97.611 C 202.479 96.878,201.429 96.429,201.833 96.917 M186.167 98.782 C 189.230 98.901,192.500 98.906,192.500 98.792 C 192.500 98.723,190.794 98.682,188.708 98.700 C 186.623 98.719,185.479 98.756,186.167 98.782 M207.333 98.792 C 207.333 98.860,209.039 98.902,211.125 98.885 C 213.210 98.867,214.816 98.895,214.693 98.945 C 214.537 99.010,214.586 99.095,214.857 99.230 C 215.549 99.576,215.660 100.077,215.689 103.000 L 215.717 105.750 215.852 102.917 C 215.932 101.240,215.926 100.062,215.836 100.031 C 215.753 100.002,215.723 99.881,215.769 99.762 C 215.814 99.643,215.617 99.347,215.330 99.106 L 214.808 98.667 211.071 98.667 C 209.015 98.667,207.333 98.723,207.333 98.792 M184.275 99.139 C 184.124 99.306,184.049 99.494,184.111 99.555 C 184.172 99.617,184.130 99.667,184.018 99.667 C 183.906 99.667,183.862 99.744,183.920 99.839 C 183.982 99.940,184.165 99.836,184.359 99.589 C 184.541 99.357,184.817 99.166,184.970 99.164 C 185.212 99.162,185.216 99.140,185.000 99.000 C 184.656 98.777,184.591 98.790,184.275 99.139 M181.083 99.573 C 181.753 99.901,182.769 99.907,182.894 99.583 C 182.946 99.446,182.917 99.333,182.828 99.333 C 182.739 99.333,182.667 99.418,182.667 99.522 C 182.667 99.710,181.636 99.658,180.917 99.433 C 180.733 99.375,180.808 99.439,181.083 99.573 M218.000 99.667 C 217.657 99.777,217.642 99.803,217.917 99.814 C 218.100 99.822,218.362 99.756,218.500 99.667 C 218.792 99.478,218.589 99.478,218.000 99.667 M183.787 103.124 C 183.904 106.941,184.000 107.014,184.000 103.288 C 184.000 101.674,183.931 100.311,183.848 100.259 C 183.756 100.202,183.732 101.353,183.787 103.124 M209.549 100.624 C 207.897 100.683,207.339 101.003,207.330 101.897 C 207.324 102.468,206.749 103.109,206.459 102.869 C 206.267 102.709,206.177 102.753,205.993 103.096 C 205.661 103.717,204.278 104.671,203.548 104.781 C 203.201 104.834,202.752 105.026,202.552 105.208 C 201.533 106.132,197.401 106.532,198.315 105.619 C 198.539 105.394,198.562 104.391,198.345 104.257 C 198.260 104.204,198.139 104.243,198.078 104.342 C 197.796 104.797,195.629 104.063,194.608 103.166 L 193.983 102.617 193.732 102.975 C 193.227 103.696,192.540 103.089,192.070 101.506 L 191.820 100.667 188.830 100.667 C 185.255 100.667,185.636 100.168,185.706 104.750 L 185.757 108.083 185.795 104.666 L 185.833 101.248 188.833 101.249 L 191.833 101.250 191.827 101.667 L 191.822 102.083 191.583 101.667 L 191.345 101.250 191.339 101.809 C 191.334 102.260,191.387 102.349,191.605 102.265 C 191.838 102.175,191.862 102.255,191.770 102.830 C 191.684 103.364,191.714 103.500,191.915 103.500 C 192.053 103.500,192.167 103.425,192.167 103.333 C 192.167 103.024,192.627 103.164,192.715 103.500 C 192.827 103.928,193.078 103.922,193.518 103.482 L 193.868 103.132 194.559 103.798 C 195.306 104.518,196.134 105.000,196.625 105.000 C 196.795 105.000,197.026 105.093,197.140 105.207 C 197.305 105.372,197.376 105.367,197.488 105.186 C 197.566 105.060,197.708 105.006,197.804 105.065 C 197.901 105.125,198.057 105.041,198.151 104.879 C 198.314 104.600,198.323 104.599,198.328 104.875 C 198.331 105.035,198.258 105.167,198.167 105.167 C 198.075 105.167,198.000 105.397,198.000 105.678 C 198.000 105.959,197.924 106.330,197.832 106.503 C 197.617 106.904,198.497 107.120,199.221 106.844 C 199.935 106.573,200.389 106.613,200.265 106.938 C 200.208 107.087,200.240 107.304,200.336 107.420 C 200.433 107.536,200.497 107.696,200.479 107.774 C 200.462 107.853,200.507 108.055,200.581 108.225 C 200.666 108.421,200.639 108.580,200.507 108.662 C 200.348 108.761,200.343 108.874,200.489 109.145 C 200.625 109.401,200.627 109.500,200.494 109.500 C 200.393 109.500,200.334 109.663,200.363 109.862 C 200.421 110.252,201.138 110.435,201.269 110.094 C 201.399 109.755,202.595 109.990,202.773 110.390 C 202.862 110.588,202.911 110.650,202.884 110.528 C 202.856 110.406,202.833 110.156,202.833 109.973 C 202.833 109.691,202.758 109.657,202.338 109.749 C 201.943 109.836,201.757 109.772,201.421 109.436 C 201.190 109.205,201.000 109.091,201.000 109.184 C 201.000 109.277,200.925 109.307,200.833 109.250 C 200.742 109.193,200.667 109.034,200.667 108.897 C 200.667 108.759,200.737 108.691,200.823 108.744 C 200.917 108.802,200.940 108.593,200.880 108.226 C 200.795 107.698,200.820 107.627,201.057 107.722 C 201.209 107.783,201.455 107.882,201.603 107.942 C 201.834 108.035,201.844 107.998,201.677 107.686 C 201.339 107.054,202.309 105.755,202.676 106.349 C 202.787 106.529,202.896 106.499,203.210 106.204 C 203.637 105.803,203.938 105.731,204.030 106.007 C 204.143 106.345,204.765 106.196,206.083 105.516 C 206.977 105.054,207.238 104.863,206.875 104.935 C 206.521 105.004,206.333 104.977,206.333 104.854 C 206.333 104.751,206.258 104.667,206.167 104.667 C 206.075 104.667,206.000 104.819,206.000 105.005 C 206.000 105.191,205.869 105.390,205.708 105.447 C 205.548 105.504,205.285 105.664,205.124 105.802 C 204.963 105.940,204.787 106.010,204.734 105.956 C 204.533 105.756,204.870 105.164,205.343 104.884 C 205.625 104.718,205.836 104.450,205.839 104.256 C 205.844 103.932,205.860 103.935,206.172 104.310 C 206.389 104.571,206.596 104.666,206.787 104.592 C 207.033 104.498,207.039 104.460,206.829 104.327 C 206.626 104.198,206.636 104.171,206.891 104.169 C 207.060 104.168,207.237 104.017,207.285 103.833 C 207.333 103.650,207.438 103.500,207.519 103.500 C 207.600 103.500,207.667 103.350,207.667 103.167 C 207.667 102.981,207.778 102.833,207.917 102.833 C 208.195 102.833,208.251 102.487,208.013 102.242 C 207.469 101.682,208.003 101.251,209.281 101.216 C 210.128 101.194,210.630 101.100,210.817 100.932 C 211.004 100.762,211.549 100.663,212.505 100.625 L 213.917 100.568 212.500 100.569 C 211.721 100.569,210.393 100.594,209.549 100.624 M214.057 102.583 C 214.058 103.317,214.087 103.596,214.122 103.204 C 214.157 102.812,214.157 102.212,214.121 101.871 C 214.085 101.529,214.057 101.850,214.057 102.583 M209.649 102.078 C 209.244 102.674,208.667 102.872,208.667 102.417 C 208.667 102.279,208.592 102.167,208.500 102.167 C 208.408 102.167,208.333 102.279,208.333 102.417 C 208.333 102.554,208.408 102.667,208.500 102.667 C 208.705 102.667,208.722 103.279,208.520 103.404 C 208.382 103.490,208.140 104.167,208.248 104.167 C 208.376 104.167,210.207 101.651,210.133 101.577 C 210.086 101.531,209.869 101.756,209.649 102.078 M183.209 102.583 C 183.211 102.950,183.245 103.080,183.285 102.873 C 183.324 102.666,183.323 102.366,183.281 102.206 C 183.239 102.047,183.207 102.217,183.209 102.583 M207.653 104.131 C 207.364 104.468,207.413 104.833,207.746 104.833 C 208.024 104.833,208.151 104.501,208.016 104.123 C 207.916 103.844,207.898 103.844,207.653 104.131 M192.207 104.287 C 192.092 104.328,192.040 104.430,192.092 104.514 C 192.144 104.598,192.069 104.667,191.927 104.667 C 191.784 104.667,191.667 104.592,191.667 104.500 C 191.667 104.408,191.592 104.333,191.500 104.333 C 191.408 104.333,191.333 104.432,191.333 104.552 C 191.333 104.839,190.427 105.705,190.280 105.558 C 190.218 105.495,190.167 105.564,190.167 105.710 C 190.167 105.857,190.045 106.098,189.897 106.246 C 189.748 106.394,189.662 106.551,189.704 106.593 C 189.797 106.685,190.431 106.059,190.984 105.331 C 191.391 104.794,191.673 104.748,192.583 105.071 C 192.846 105.165,192.837 105.142,192.540 104.963 C 192.248 104.788,192.208 104.692,192.362 104.538 C 192.592 104.308,192.512 104.178,192.207 104.287 M190.167 104.583 C 190.167 104.721,190.242 104.833,190.333 104.833 C 190.425 104.833,190.500 104.721,190.500 104.583 C 190.500 104.446,190.425 104.333,190.333 104.333 C 190.242 104.333,190.167 104.446,190.167 104.583 M208.458 105.192 C 208.858 105.632,208.959 105.931,208.641 105.734 C 208.521 105.660,208.494 105.688,208.569 105.810 C 208.635 105.918,208.761 105.961,208.848 105.908 C 208.935 105.854,209.114 106.059,209.247 106.363 C 209.379 106.668,209.490 106.797,209.493 106.650 C 209.501 106.355,208.648 105.106,208.303 104.906 C 208.182 104.837,208.252 104.965,208.458 105.192 M216.539 105.667 C 216.539 105.987,216.573 106.119,216.615 105.958 C 216.657 105.798,216.657 105.535,216.615 105.375 C 216.573 105.215,216.539 105.346,216.539 105.667 M213.333 111.490 C 213.333 115.304,213.394 117.518,213.500 117.583 C 213.610 117.651,213.667 115.613,213.667 111.593 C 213.667 107.642,213.608 105.500,213.500 105.500 C 213.392 105.500,213.333 107.608,213.333 111.490 M212.667 105.917 C 212.549 106.059,212.490 106.212,212.536 106.258 C 212.582 106.304,212.716 106.225,212.833 106.083 C 212.951 105.941,213.010 105.788,212.964 105.742 C 212.918 105.696,212.784 105.775,212.667 105.917 M203.708 106.686 C 203.410 106.877,203.167 106.950,203.167 106.850 C 203.167 106.652,202.526 106.603,202.097 106.768 C 201.802 106.881,201.734 107.333,202.011 107.333 C 202.117 107.333,202.143 107.477,202.077 107.688 C 201.949 108.091,201.956 108.088,203.250 107.187 C 204.520 106.304,204.823 105.972,203.708 106.686 M190.003 107.065 C 190.004 107.276,190.054 107.341,190.128 107.228 C 190.195 107.124,190.400 107.007,190.583 106.969 C 190.858 106.912,190.837 106.884,190.458 106.806 C 190.073 106.728,190.000 106.769,190.003 107.065 M212.768 106.930 C 212.597 107.375,212.658 116.562,212.833 116.833 C 212.940 116.998,212.996 115.299,212.997 111.875 C 213.000 106.809,212.980 106.378,212.768 106.930 M201.288 107.167 C 201.305 107.394,201.210 107.500,200.990 107.500 C 200.812 107.500,200.667 107.400,200.667 107.278 C 200.667 106.761,201.249 106.657,201.288 107.167 M202.790 107.282 C 202.635 107.437,202.452 107.508,202.384 107.439 C 202.316 107.371,202.370 107.245,202.505 107.160 C 202.911 106.904,203.091 106.981,202.790 107.282 M192.043 107.372 C 192.392 107.519,192.480 107.647,192.410 107.907 C 192.324 108.227,192.330 108.229,192.509 107.942 C 192.729 107.590,192.593 107.411,192.000 107.275 C 191.622 107.188,191.626 107.197,192.043 107.372 M181.833 107.631 C 181.833 107.703,181.985 107.774,182.170 107.788 C 182.356 107.802,182.464 107.743,182.410 107.657 C 182.293 107.467,181.833 107.447,181.833 107.631 M197.310 107.823 C 197.527 108.012,197.783 108.167,197.880 108.167 C 198.085 108.167,198.075 108.158,197.417 107.773 L 196.917 107.480 197.310 107.823 M217.250 107.667 C 217.119 107.879,217.505 107.879,217.833 107.667 C 218.037 107.535,218.015 107.505,217.718 107.503 C 217.517 107.501,217.307 107.575,217.250 107.667 M182.742 113.583 C 182.742 116.883,182.764 118.257,182.791 116.636 C 182.819 115.015,182.819 112.315,182.791 110.636 C 182.764 108.957,182.742 110.283,182.742 113.583 M210.772 108.830 C 210.228 109.652,210.208 109.851,210.726 109.292 C 211.052 108.939,211.417 108.167,211.257 108.167 C 211.231 108.167,211.013 108.465,210.772 108.830 M188.520 108.606 C 188.320 108.831,188.330 108.858,188.589 108.808 C 188.754 108.776,188.920 108.656,188.958 108.542 C 189.054 108.254,188.798 108.292,188.520 108.606 M192.221 109.417 C 192.222 110.058,192.252 110.300,192.288 109.955 C 192.324 109.609,192.324 109.084,192.287 108.788 C 192.250 108.492,192.221 108.775,192.221 109.417 M198.667 108.773 C 198.667 108.906,198.484 109.198,198.260 109.422 C 197.823 109.858,198.010 110.333,198.617 110.333 C 198.877 110.333,199.500 109.734,199.500 109.484 C 199.500 109.177,199.169 109.184,199.002 109.495 C 198.723 110.018,198.312 109.947,198.557 109.418 C 198.663 109.190,198.881 109.002,199.042 109.001 C 199.440 109.000,199.411 108.726,199.000 108.618 C 198.780 108.561,198.667 108.613,198.667 108.773 M196.296 108.792 C 196.264 108.860,196.288 109.254,196.349 109.667 L 196.460 110.417 196.450 109.542 C 196.441 108.684,196.411 108.540,196.296 108.792 M207.385 109.583 C 207.386 110.133,207.417 110.338,207.454 110.039 C 207.491 109.739,207.490 109.289,207.452 109.039 C 207.414 108.788,207.384 109.033,207.385 109.583 M203.209 109.750 C 203.211 110.117,203.245 110.247,203.285 110.040 C 203.324 109.832,203.323 109.532,203.281 109.373 C 203.239 109.214,203.207 109.383,203.209 109.750 M201.151 109.769 C 200.909 110.061,200.754 109.947,200.895 109.580 C 200.951 109.433,201.077 109.361,201.174 109.421 C 201.294 109.496,201.287 109.605,201.151 109.769 M185.573 114.083 C 185.573 116.650,185.596 117.677,185.625 116.365 C 185.653 115.053,185.653 112.953,185.625 111.698 C 185.596 110.443,185.573 111.517,185.573 114.083 M196.576 110.871 C 196.483 111.187,196.182 111.566,195.850 111.788 C 195.539 111.996,195.378 112.167,195.492 112.167 C 195.833 112.167,196.833 111.061,196.833 110.683 C 196.833 110.194,196.761 110.246,196.576 110.871 M192.338 110.789 C 192.336 110.902,192.540 111.206,192.792 111.464 C 193.044 111.722,193.129 111.779,192.981 111.591 C 192.833 111.404,192.629 111.100,192.528 110.917 C 192.426 110.733,192.341 110.676,192.338 110.789 M209.278 110.944 C 209.118 111.104,209.141 111.333,209.316 111.333 C 209.397 111.333,209.508 111.221,209.560 111.083 C 209.658 110.829,209.480 110.742,209.278 110.944 M196.988 111.042 C 196.865 111.454,196.871 111.833,197.001 111.833 C 197.092 111.833,197.167 111.646,197.167 111.417 C 197.167 111.086,197.048 110.838,196.988 111.042 M206.539 111.672 C 206.240 111.944,206.036 112.167,206.087 112.167 C 206.289 112.167,206.978 111.632,207.064 111.407 C 207.186 111.089,207.171 111.096,206.539 111.672 M204.074 112.071 C 204.275 112.235,204.683 112.324,205.157 112.310 L 205.917 112.286 205.083 112.182 C 204.625 112.124,204.137 112.017,204.000 111.943 C 203.862 111.869,203.896 111.927,204.074 112.071 M194.294 112.285 C 194.501 112.324,194.801 112.323,194.960 112.281 C 195.120 112.239,194.950 112.207,194.583 112.209 C 194.217 112.211,194.086 112.245,194.294 112.285 M208.002 112.747 C 207.609 113.383,207.669 113.667,208.195 113.667 C 208.487 113.667,208.527 113.582,208.468 113.083 C 208.431 112.763,208.460 112.500,208.533 112.500 C 208.607 112.500,208.667 112.425,208.667 112.333 C 208.667 111.989,208.348 112.187,208.002 112.747 M199.250 112.500 C 199.193 112.592,199.306 112.667,199.500 112.667 C 199.694 112.667,199.807 112.592,199.750 112.500 C 199.693 112.408,199.581 112.333,199.500 112.333 C 199.419 112.333,199.307 112.408,199.250 112.500 M201.519 112.859 C 201.506 113.053,201.388 113.114,201.125 113.063 C 200.769 112.994,200.770 112.999,201.149 113.166 C 201.617 113.371,201.725 113.306,201.617 112.888 C 201.553 112.637,201.535 112.632,201.519 112.859 M203.238 113.371 L 202.917 113.750 203.302 113.423 C 203.632 113.143,203.711 113.131,203.856 113.340 C 204.000 113.546,204.016 113.547,203.961 113.344 C 203.856 112.955,203.581 112.966,203.238 113.371 M197.500 113.917 C 197.811 114.146,198.136 114.333,198.222 114.333 C 198.309 114.333,198.104 114.146,197.766 113.917 C 197.428 113.688,197.103 113.500,197.044 113.500 C 196.984 113.500,197.189 113.688,197.500 113.917 M203.971 114.174 C 203.817 114.537,203.721 114.833,203.758 114.833 C 203.880 114.833,204.354 113.813,204.302 113.663 C 204.273 113.582,204.124 113.812,203.971 114.174 M214.774 114.625 C 214.717 114.969,214.670 116.082,214.669 117.099 C 214.666 119.894,216.523 119.583,199.833 119.583 C 183.032 119.583,185.000 119.967,185.000 116.691 C 185.000 115.072,184.949 114.484,184.820 114.614 C 184.703 114.731,184.659 115.567,184.695 116.995 C 184.775 120.203,182.799 119.833,199.859 119.833 L 214.182 119.833 214.591 119.424 C 214.989 119.026,215.000 118.948,215.000 116.508 C 215.000 113.929,214.953 113.539,214.774 114.625 M199.375 114.619 C 199.627 114.658,200.040 114.658,200.292 114.619 C 200.544 114.581,200.338 114.550,199.833 114.550 C 199.329 114.550,199.123 114.581,199.375 114.619 M203.234 115.359 C 203.060 115.556,202.583 115.931,202.176 116.192 C 201.768 116.453,201.513 116.667,201.609 116.667 C 201.833 116.667,202.988 115.823,203.401 115.358 C 203.575 115.161,203.681 115.000,203.635 115.000 C 203.589 115.000,203.409 115.161,203.234 115.359 M197.477 116.323 C 197.693 116.512,197.949 116.667,198.046 116.667 C 198.251 116.667,198.241 116.658,197.583 116.273 L 197.083 115.980 197.477 116.323 M199.458 116.618 C 199.665 116.657,200.002 116.657,200.208 116.618 C 200.415 116.578,200.246 116.545,199.833 116.545 C 199.421 116.545,199.252 116.578,199.458 116.618 M199.377 116.953 C 199.631 116.991,200.006 116.990,200.211 116.951 C 200.416 116.911,200.208 116.880,199.750 116.881 C 199.292 116.882,199.124 116.915,199.377 116.953 M183.456 121.514 C 183.172 121.680,181.073 124.667,181.241 124.667 C 181.287 124.667,181.779 123.992,182.333 123.167 C 182.888 122.342,183.359 121.649,183.379 121.627 C 183.400 121.605,190.767 121.548,199.750 121.500 L 216.083 121.413 199.917 121.378 C 189.104 121.355,183.653 121.400,183.456 121.514 M218.082 124.245 C 219.883 126.876,220.419 127.614,220.084 127.000 C 219.751 126.392,216.764 122.050,216.471 121.750 C 216.292 121.567,217.017 122.689,218.082 124.245 M185.052 122.283 C 184.992 122.448,184.842 122.643,184.721 122.717 C 183.978 123.165,184.508 123.333,186.667 123.333 C 187.858 123.333,188.833 123.277,188.834 123.208 C 188.834 123.140,187.896 123.106,186.750 123.135 C 185.365 123.169,184.667 123.127,184.667 123.010 C 184.667 122.895,185.391 122.833,186.730 122.833 C 188.800 122.833,189.393 122.668,189.088 122.174 C 188.877 121.833,187.478 121.964,187.382 122.333 C 187.274 122.743,186.861 122.778,186.894 122.375 C 186.929 121.934,185.213 121.848,185.052 122.283 M189.500 122.126 C 189.500 122.196,189.838 122.226,190.250 122.193 C 190.721 122.155,191.000 122.201,191.000 122.317 C 191.000 122.422,190.690 122.500,190.270 122.500 C 189.534 122.500,189.036 122.820,189.245 123.159 C 189.394 123.399,191.449 123.383,191.599 123.141 C 191.664 123.036,191.594 122.859,191.442 122.748 C 191.291 122.637,191.167 122.424,191.167 122.273 C 191.167 122.056,190.995 122.000,190.333 122.000 C 189.875 122.000,189.500 122.057,189.500 122.126 M191.568 122.192 C 191.502 122.298,191.554 122.466,191.683 122.567 C 191.811 122.668,191.917 122.862,191.917 123.000 C 191.917 123.198,192.157 123.250,193.083 123.250 C 194.092 123.250,194.247 123.211,194.227 122.958 C 194.212 122.772,194.321 122.667,194.528 122.667 C 194.707 122.667,194.818 122.723,194.775 122.792 C 194.732 122.860,195.178 122.892,195.765 122.861 C 196.429 122.826,196.833 122.870,196.833 122.978 C 196.833 123.075,196.338 123.177,195.708 123.210 L 194.583 123.268 195.792 123.301 C 196.900 123.331,197.000 123.306,197.000 123.000 C 197.000 122.817,197.105 122.667,197.234 122.667 C 197.387 122.667,197.438 122.783,197.382 123.000 C 197.301 123.310,197.377 123.333,198.474 123.333 L 199.653 123.333 199.618 122.708 C 199.584 122.087,199.579 122.083,198.792 122.033 C 198.035 121.984,197.905 122.066,197.980 122.542 C 197.991 122.610,197.896 122.667,197.769 122.667 C 197.641 122.667,197.547 122.535,197.560 122.375 C 197.598 121.900,196.008 121.852,195.884 122.324 C 195.775 122.741,195.361 122.784,195.394 122.375 C 195.413 122.133,195.275 122.083,194.583 122.083 C 193.892 122.083,193.754 122.133,193.773 122.375 C 193.805 122.778,193.392 122.743,193.285 122.333 C 193.186 121.953,191.787 121.838,191.568 122.192 M200.000 122.126 C 200.000 122.196,200.338 122.226,200.750 122.193 C 201.221 122.155,201.500 122.201,201.500 122.317 C 201.500 122.423,201.185 122.500,200.750 122.500 C 200.058 122.500,200.000 122.533,200.000 122.924 C 200.000 123.342,200.018 123.348,201.125 123.299 C 202.100 123.257,202.247 123.209,202.224 122.943 C 202.204 122.706,202.280 122.658,202.558 122.732 C 202.755 122.785,203.348 122.830,203.875 122.831 C 204.452 122.832,204.833 122.905,204.833 123.014 C 204.833 123.131,204.452 123.175,203.750 123.139 C 203.154 123.108,202.666 123.140,202.666 123.208 C 202.667 123.277,203.200 123.333,203.853 123.333 C 204.957 123.333,205.033 123.310,204.952 123.000 C 204.888 122.758,204.947 122.667,205.164 122.667 C 205.346 122.667,205.454 122.780,205.440 122.958 C 205.420 123.209,205.577 123.252,206.542 123.262 L 207.668 123.275 206.584 123.213 C 205.984 123.179,205.500 123.074,205.500 122.978 C 205.500 122.871,205.902 122.826,206.563 122.861 C 207.263 122.898,207.691 122.846,207.819 122.708 C 207.972 122.544,207.854 122.500,207.257 122.500 C 206.817 122.500,206.500 122.423,206.500 122.317 C 206.500 122.202,206.776 122.155,207.234 122.192 C 207.638 122.224,207.933 122.194,207.891 122.125 C 207.697 121.811,206.333 121.993,206.333 122.333 C 206.333 122.517,206.229 122.667,206.102 122.667 C 205.975 122.667,205.881 122.535,205.894 122.375 C 205.913 122.133,205.775 122.083,205.083 122.083 C 204.392 122.083,204.254 122.133,204.273 122.375 C 204.306 122.784,203.892 122.741,203.783 122.324 C 203.659 121.852,202.069 121.900,202.106 122.375 C 202.139 122.778,201.726 122.743,201.618 122.333 C 201.531 122.000,200.000 121.804,200.000 122.126 M208.410 122.178 C 208.349 122.276,208.344 122.399,208.397 122.453 C 208.451 122.507,208.372 122.640,208.222 122.750 C 207.738 123.104,208.142 123.333,209.250 123.333 C 210.470 123.333,210.536 123.280,210.226 122.542 C 209.989 121.977,208.694 121.718,208.410 122.178 M210.583 122.167 C 210.527 122.258,210.539 122.427,210.611 122.542 C 210.682 122.656,210.743 122.862,210.746 123.000 C 210.752 123.383,215.167 123.466,215.167 123.083 C 215.167 122.940,215.062 122.783,214.933 122.733 C 214.805 122.684,214.662 122.499,214.615 122.322 C 214.545 122.051,214.380 122.000,213.579 122.000 C 212.710 122.000,212.635 122.029,212.715 122.333 C 212.769 122.539,212.720 122.667,212.587 122.667 C 212.469 122.667,212.333 122.517,212.285 122.333 C 212.190 121.968,210.791 121.831,210.583 122.167 M186.833 122.333 C 186.833 122.425,186.458 122.500,186.000 122.500 C 185.542 122.500,185.167 122.425,185.167 122.333 C 185.167 122.242,185.542 122.167,186.000 122.167 C 186.458 122.167,186.833 122.242,186.833 122.333 M189.000 122.333 C 189.000 122.425,188.662 122.500,188.250 122.500 C 187.838 122.500,187.500 122.425,187.500 122.333 C 187.500 122.242,187.838 122.167,188.250 122.167 C 188.662 122.167,189.000 122.242,189.000 122.333 M193.167 122.333 C 193.167 122.425,192.825 122.500,192.407 122.500 C 191.943 122.500,191.687 122.435,191.750 122.333 C 191.807 122.242,192.149 122.167,192.510 122.167 C 192.871 122.167,193.167 122.242,193.167 122.333 M195.333 122.333 C 195.333 122.425,194.996 122.500,194.583 122.500 C 194.171 122.500,193.833 122.425,193.833 122.333 C 193.833 122.242,194.171 122.167,194.583 122.167 C 194.996 122.167,195.333 122.242,195.333 122.333 M197.500 122.333 C 197.500 122.425,197.162 122.500,196.750 122.500 C 196.338 122.500,196.000 122.425,196.000 122.333 C 196.000 122.242,196.338 122.167,196.750 122.167 C 197.162 122.167,197.500 122.242,197.500 122.333 M199.500 122.333 C 199.500 122.425,199.158 122.500,198.740 122.500 C 198.276 122.500,198.020 122.435,198.083 122.333 C 198.140 122.242,198.482 122.167,198.843 122.167 C 199.204 122.167,199.500 122.242,199.500 122.333 M203.667 122.333 C 203.667 122.425,203.329 122.500,202.917 122.500 C 202.504 122.500,202.167 122.425,202.167 122.333 C 202.167 122.242,202.504 122.167,202.917 122.167 C 203.329 122.167,203.667 122.242,203.667 122.333 M205.833 122.333 C 205.833 122.425,205.496 122.500,205.083 122.500 C 204.671 122.500,204.333 122.425,204.333 122.333 C 204.333 122.242,204.671 122.167,205.083 122.167 C 205.496 122.167,205.833 122.242,205.833 122.333 M210.000 122.333 C 210.000 122.425,209.662 122.500,209.250 122.500 C 208.838 122.500,208.500 122.425,208.500 122.333 C 208.500 122.242,208.838 122.167,209.250 122.167 C 209.662 122.167,210.000 122.242,210.000 122.333 M212.167 122.333 C 212.167 122.425,211.829 122.500,211.417 122.500 C 211.004 122.500,210.667 122.425,210.667 122.333 C 210.667 122.242,211.004 122.167,211.417 122.167 C 211.829 122.167,212.167 122.242,212.167 122.333 M214.500 122.333 C 214.500 122.425,214.125 122.500,213.667 122.500 C 213.208 122.500,212.833 122.425,212.833 122.333 C 212.833 122.242,213.208 122.167,213.667 122.167 C 214.125 122.167,214.500 122.242,214.500 122.333 M191.500 123.000 C 191.500 123.094,191.028 123.167,190.417 123.167 C 189.806 123.167,189.333 123.094,189.333 123.000 C 189.333 122.906,189.806 122.833,190.417 122.833 C 191.028 122.833,191.500 122.906,191.500 123.000 M194.167 123.000 C 194.167 123.094,193.691 123.167,193.073 123.167 C 192.387 123.167,192.019 123.105,192.083 123.000 C 192.140 122.908,192.632 122.833,193.177 122.833 C 193.726 122.833,194.167 122.908,194.167 123.000 M199.500 123.000 C 199.500 123.093,199.056 123.167,198.500 123.167 C 197.944 123.167,197.500 123.093,197.500 123.000 C 197.500 122.907,197.944 122.833,198.500 122.833 C 199.056 122.833,199.500 122.907,199.500 123.000 M202.167 123.000 C 202.167 123.093,201.722 123.167,201.167 123.167 C 200.611 123.167,200.167 123.093,200.167 123.000 C 200.167 122.907,200.611 122.833,201.167 122.833 C 201.722 122.833,202.167 122.907,202.167 123.000 M210.250 123.000 C 210.315 123.105,209.946 123.167,209.260 123.167 C 208.642 123.167,208.167 123.094,208.167 123.000 C 208.167 122.908,208.608 122.833,209.157 122.833 C 209.701 122.833,210.193 122.908,210.250 123.000 M215.000 123.000 C 215.000 123.102,214.194 123.167,212.917 123.167 C 211.639 123.167,210.833 123.102,210.833 123.000 C 210.833 122.898,211.639 122.833,212.917 122.833 C 214.194 122.833,215.000 122.898,215.000 123.000 M184.109 123.625 C 184.066 123.694,184.905 123.730,185.974 123.706 C 189.440 123.629,189.810 123.564,186.968 123.532 C 185.438 123.514,184.151 123.556,184.109 123.625 M190.166 123.625 C 190.166 123.694,190.635 123.725,191.208 123.694 C 191.919 123.656,192.197 123.693,192.083 123.810 C 191.992 123.904,191.504 124.009,191.000 124.043 L 190.083 124.105 191.107 124.136 C 192.071 124.165,192.545 123.934,192.211 123.600 C 192.065 123.454,190.167 123.478,190.166 123.625 M192.604 123.756 C 192.471 124.104,192.789 124.197,193.853 124.124 L 194.750 124.062 193.675 124.031 C 192.379 123.994,192.488 123.715,193.833 123.624 L 194.750 123.562 193.726 123.531 C 192.939 123.507,192.680 123.559,192.604 123.756 M195.542 123.619 C 195.794 123.658,196.206 123.658,196.458 123.619 C 196.710 123.581,196.504 123.550,196.000 123.550 C 195.496 123.550,195.290 123.581,195.542 123.619 M197.574 123.681 C 197.367 124.017,197.780 124.186,198.683 124.135 C 199.380 124.095,199.593 124.018,199.636 123.792 C 199.700 123.451,197.780 123.348,197.574 123.681 M200.375 123.619 C 200.627 123.658,201.040 123.658,201.292 123.619 C 201.544 123.581,201.338 123.550,200.833 123.550 C 200.329 123.550,200.123 123.581,200.375 123.619 M201.833 123.742 C 201.833 123.918,201.573 124.000,200.875 124.044 L 199.917 124.104 200.958 124.135 C 201.899 124.164,202.000 124.134,202.000 123.833 C 202.000 123.650,201.963 123.500,201.917 123.500 C 201.871 123.500,201.833 123.609,201.833 123.742 M202.364 123.792 C 202.456 124.270,204.500 124.317,204.500 123.841 C 204.500 123.532,204.397 123.500,203.404 123.500 C 202.451 123.500,202.316 123.538,202.364 123.792 M204.864 123.792 C 204.956 124.270,207.000 124.317,207.000 123.841 C 207.000 123.532,206.897 123.500,205.904 123.500 C 204.951 123.500,204.816 123.538,204.864 123.792 M207.364 123.792 C 207.456 124.270,209.500 124.317,209.500 123.841 C 209.500 123.532,209.397 123.500,208.404 123.500 C 207.451 123.500,207.316 123.538,207.364 123.792 M209.864 123.788 C 209.910 124.030,210.123 124.092,211.035 124.132 C 211.801 124.166,212.135 124.244,212.103 124.382 C 212.076 124.493,212.086 124.527,212.125 124.458 C 212.163 124.390,212.519 124.333,212.917 124.333 C 213.314 124.333,213.670 124.390,213.709 124.458 C 213.747 124.527,213.756 124.490,213.728 124.375 C 213.692 124.226,213.963 124.167,214.684 124.167 C 215.553 124.167,215.683 124.127,215.635 123.875 C 215.585 123.613,215.288 123.579,212.693 123.538 C 210.006 123.495,209.811 123.512,209.864 123.788 M199.500 123.833 C 199.500 123.925,199.088 124.000,198.583 124.000 C 198.079 124.000,197.667 123.925,197.667 123.833 C 197.667 123.742,198.079 123.667,198.583 123.667 C 199.088 123.667,199.500 123.742,199.500 123.833 M204.333 123.833 C 204.333 123.925,203.921 124.000,203.417 124.000 C 202.912 124.000,202.500 123.925,202.500 123.833 C 202.500 123.742,202.912 123.667,203.417 123.667 C 203.921 123.667,204.333 123.742,204.333 123.833 M206.833 123.833 C 206.833 123.925,206.421 124.000,205.917 124.000 C 205.412 124.000,205.000 123.925,205.000 123.833 C 205.000 123.742,205.412 123.667,205.917 123.667 C 206.421 123.667,206.833 123.742,206.833 123.833 M209.333 123.833 C 209.333 123.925,208.921 124.000,208.417 124.000 C 207.912 124.000,207.500 123.925,207.500 123.833 C 207.500 123.742,207.912 123.667,208.417 123.667 C 208.921 123.667,209.333 123.742,209.333 123.833 M215.500 123.833 C 215.500 123.938,214.472 124.000,212.750 124.000 C 211.028 124.000,210.000 123.938,210.000 123.833 C 210.000 123.729,211.028 123.667,212.750 123.667 C 214.472 123.667,215.500 123.729,215.500 123.833 M186.750 124.000 L 183.917 124.096 186.792 124.131 C 188.621 124.154,189.667 124.106,189.667 124.000 C 189.667 123.908,189.648 123.849,189.625 123.869 C 189.602 123.888,188.308 123.947,186.750 124.000 M196.083 124.000 L 195.083 124.111 196.125 124.139 C 196.727 124.155,197.167 124.096,197.167 124.000 C 197.167 123.908,197.148 123.846,197.125 123.861 C 197.102 123.877,196.633 123.939,196.083 124.000 M183.426 124.704 C 183.009 125.300,183.084 125.333,184.827 125.333 C 186.526 125.333,186.833 125.208,186.833 124.511 C 186.833 124.116,183.714 124.292,183.426 124.704 M187.158 124.773 C 187.066 125.015,187.027 125.249,187.071 125.293 C 187.114 125.337,187.200 125.176,187.260 124.936 C 187.368 124.504,187.385 124.500,188.938 124.500 L 190.506 124.500 190.416 124.958 C 190.330 125.394,190.334 125.397,190.496 125.026 C 190.765 124.412,190.584 124.333,188.903 124.333 C 187.351 124.333,187.322 124.341,187.158 124.773 M191.053 124.623 C 190.996 124.785,190.911 124.985,190.865 125.067 C 190.819 125.150,190.868 125.165,190.974 125.099 C 191.080 125.034,191.167 124.872,191.167 124.740 C 191.167 124.407,205.767 124.376,205.879 124.708 C 205.919 124.828,205.941 124.810,205.930 124.667 C 205.900 124.250,191.201 124.207,191.053 124.623 M206.444 124.444 C 206.383 124.506,206.334 124.637,206.336 124.736 C 206.337 124.849,206.386 124.842,206.466 124.716 C 206.540 124.599,207.111 124.492,207.838 124.458 L 209.083 124.400 207.819 124.366 C 207.124 124.348,206.506 124.383,206.444 124.444 M186.667 124.570 C 186.667 125.083,186.417 125.167,184.893 125.167 C 183.373 125.167,183.327 125.156,183.500 124.833 C 183.662 124.530,186.667 124.280,186.667 124.570 M210.000 125.083 C 210.000 125.221,210.079 125.333,210.177 125.333 C 210.274 125.333,210.307 125.258,210.250 125.167 C 210.187 125.064,210.466 125.000,210.976 125.000 C 211.484 125.000,211.838 125.081,211.890 125.208 C 211.940 125.333,211.979 125.299,211.987 125.125 C 211.998 124.878,211.846 124.833,211.000 124.833 C 210.222 124.833,210.000 124.889,210.000 125.083 M213.080 124.952 C 213.537 124.990,213.974 125.110,214.051 125.219 C 214.149 125.356,214.171 125.340,214.125 125.167 C 214.076 124.986,213.805 124.912,213.154 124.900 L 212.250 124.883 213.080 124.952 M214.346 125.125 C 214.354 125.299,214.393 125.333,214.444 125.208 C 214.495 125.082,214.845 125.000,215.333 125.000 C 215.822 125.000,216.172 125.082,216.223 125.208 C 216.273 125.333,216.312 125.299,216.320 125.125 C 216.331 124.878,216.180 124.833,215.333 124.833 C 214.487 124.833,214.335 124.878,214.346 125.125 M220.167 125.229 C 220.167 125.298,220.369 125.632,220.616 125.969 C 221.204 126.773,221.416 126.996,221.199 126.583 C 220.947 126.102,220.167 125.079,220.167 125.229 M179.836 126.625 L 179.337 127.417 179.687 127.708 C 179.879 127.869,180.197 127.994,180.393 127.986 C 180.696 127.974,180.682 127.951,180.305 127.837 C 179.528 127.602,179.458 127.507,179.741 127.068 C 179.883 126.847,180.121 126.479,180.269 126.250 C 180.417 126.021,180.492 125.833,180.436 125.833 C 180.380 125.833,180.110 126.190,179.836 126.625 M220.167 127.458 C 220.167 127.558,219.960 127.714,219.708 127.806 C 219.456 127.898,219.367 127.980,219.510 127.987 C 219.856 128.004,220.449 127.560,220.291 127.403 C 220.223 127.334,220.167 127.359,220.167 127.458 M221.542 127.917 C 221.544 128.283,221.578 128.414,221.618 128.206 C 221.658 127.999,221.656 127.699,221.615 127.540 C 221.573 127.380,221.540 127.550,221.542 127.917 M190.375 128.125 C 195.669 128.149,204.331 128.149,209.625 128.125 C 214.919 128.101,210.588 128.081,200.000 128.081 C 189.412 128.081,185.081 128.101,190.375 128.125 M189.958 130.958 C 195.390 130.983,204.277 130.983,209.708 130.958 C 215.140 130.934,210.696 130.914,199.833 130.914 C 188.971 130.914,184.527 130.934,189.958 130.958 " stroke="none" fill="#535150" fill-rule="evenodd"></path></g></svg>